<?xml version="1.0" encoding="UTF-8"?>
<!DOCTYPE svg PUBLIC "-//W3C//DTD SVG 1.1//EN" "http://www.w3.org/Graphics/SVG/1.1/DTD/svg11.dtd">
<!-- Creator: CorelDRAW 2017 -->
<svg xmlns="http://www.w3.org/2000/svg" xml:space="preserve" width="239px" height="60px" version="1.1" style="shape-rendering:geometricPrecision; text-rendering:geometricPrecision; image-rendering:optimizeQuality; fill-rule:evenodd; clip-rule:evenodd"
viewBox="0 0 167.57 42.1"
 xmlns:xlink="http://www.w3.org/1999/xlink">
 <defs>
  <style type="text/css">
   <![CDATA[
    .str2 {stroke:gray;stroke-width:0.12;stroke-miterlimit:22.9256}
    .str0 {stroke:#999999;stroke-width:0.12;stroke-miterlimit:22.9256}
    .str1 {stroke:white;stroke-width:0.12;stroke-miterlimit:22.9256}
    .fil0 {fill:#FA0A0A}
    .fil2 {fill:gray;fill-rule:nonzero}
    .fil3 {fill:gray;fill-rule:nonzero}
    .fil1 {fill:white;fill-rule:nonzero}
   ]]>
  </style>
 </defs>
 <g id="Слой_x0020_1">
  <metadata id="CorelCorpID_0Corel-Layer"/>
  <g id="_2480819816416">
   <g>
    <path class="fil0 str0" d="M5.26 0.06l32.95 0c2.86,0 5.2,2.34 5.2,5.2l0 31.5c0,2.86 -2.34,5.2 -5.2,5.2l-32.95 0c-2.86,0 -5.2,-2.34 -5.2,-5.2l0 -31.5c0,-2.86 2.34,-5.2 5.2,-5.2z"/>
    <g>
     <path class="fil1 str1" d="M35.04 30.99c0,0 0.68,0.54 1.25,0.6 0,0 0.55,0.07 1.04,0.96 0.49,0.88 0.55,1.25 0.81,1.87 0.26,0.62 0.52,2.4 0.19,2.58 0.09,0.26 -0.04,1.26 -0.19,1.19 -0.11,-0.15 -0.08,-0.9 -0.13,-0.99 -0.05,0.26 0,1.19 -0.15,1.18 -0.15,0 -0.22,-0.66 -0.22,-0.66 0,0 -0.21,0.21 -0.26,-0.05 -0.04,-0.27 -0.13,-0.49 -0.13,-0.49 0,0 -0.21,0.21 -0.28,-0.09 -0.07,-0.31 -0.2,-0.51 -0.2,-0.51 0,0 -0.33,-0.1 -0.39,-0.54 -0.14,0.14 -0.42,-0.13 -0.47,-0.51 -0.12,0.25 -0.28,-0.01 -0.4,-0.39 -0.04,0.06 -0.26,0.17 -0.27,-0.06 -0.01,-0.23 -0.03,-0.32 -0.03,-0.32 0,0 -0.33,-0.24 -0.34,-0.39 -0.25,-0.27 -0.49,-0.59 -0.52,-0.63 -0.03,-0.04 -0.16,-0.09 -0.22,-0.21 -0.09,-0.12 -0.27,-0.1 -0.37,-0.24 -0.09,-0.13 -0.29,-0.25 -0.41,-0.4 -0.12,-0.16 -0.48,-0.22 -0.57,-0.36 -0.4,0.16 -1.11,0.7 -1.25,0.82 -0.14,0.12 -1.47,1.82 -2.08,2.57 -0.61,0.75 -1.12,1.41 -1.16,1.12 -0.04,-0.3 0.23,-0.49 0.37,-0.66 0.15,-0.17 0.31,-0.33 0.36,-0.55 0.04,-0.22 0.25,-0.58 0.44,-0.78 0.19,-0.2 0.44,-0.66 0.58,-0.89 0.15,-0.24 0.04,-0.37 0.07,-0.49 0.03,-0.13 -0.14,-0.34 0,-0.44 0.05,-0.07 -0.06,-0.16 -0.24,-0.12 -0.19,0.04 -0.25,0 -0.32,-0.17 -0.28,0.01 -0.41,-0.05 -0.48,-0.14 -0.41,0.05 -1.71,0.32 -1.92,0.12 -0.34,0.03 -1.64,0.18 -1.57,-0.07 0.07,-0.25 3.08,-0.6 3.08,-0.6l2.39 -0.56 0.32 -0.2c0,0 -0.18,-0.28 0.13,-0.58 -0.12,-0.32 -0.7,-1.36 -0.59,-1.64 -0.33,-0.51 -0.55,-0.87 -0.55,-0.87 0,0 -0.25,-0.21 -0.24,-0.32 -0.4,-0.12 -0.44,-0.17 -0.44,-0.17l0.15 -0.1 -0.4 -0.22 0.12 -0.06c0,0 -0.34,-0.25 -0.34,-0.33 0.01,-0.08 -0.12,-0.13 -0.21,-0.19 -0.09,-0.05 -0.22,-0.2 -0.27,-0.26 0,0 -0.53,-0.19 -0.46,-0.24 0.06,-0.04 0.05,-0.11 0.05,-0.11 0,0 -0.69,-0.18 -0.58,-0.25 0.11,-0.06 0.14,-0.12 0.14,-0.12 0,0 -0.76,-0.11 -0.66,-0.18 0.09,-0.06 1.52,0.11 1.33,0.04 -0.2,-0.06 -1.25,-0.29 -1.08,-0.36 0.16,-0.07 2.55,0.5 2.29,0.38 -0.25,-0.13 -1.32,-0.46 -1.04,-0.45 0.28,0 2.88,0.9 3.37,1.03 0.5,0.14 1.14,0.49 1.34,0.79 0.21,0.29 0.28,0.54 0.22,0.67 -0.06,0.13 -0.12,0.8 0.01,1.26 0.12,0.45 0.44,0.68 0.54,0.64 0.1,-0.04 1.21,-0.3 1.51,0.21 0.24,0.06 0.34,0.24 0.24,0.4 -0.06,-0.13 -0.16,-0.2 -0.24,-0.08 -0.1,0.07 -0.69,0.56 -0.67,0.61z"/>
     <path class="fil1 str1" d="M34.21 14.49c0,0 1.33,1.04 2.43,1.16 0,0 1.07,0.14 2.01,1.86 0.95,1.71 1.06,2.41 1.56,3.61 0.51,1.2 1.01,4.64 0.37,5 0.18,0.51 -0.08,2.43 -0.35,2.3 -0.22,-0.3 -0.17,-1.74 -0.26,-1.92 -0.1,0.51 0,2.3 -0.29,2.29 -0.29,-0.01 -0.42,-1.29 -0.42,-1.29 0,0 -0.41,0.42 -0.5,-0.1 -0.1,-0.51 -0.27,-0.93 -0.27,-0.93 0,0 -0.4,0.41 -0.54,-0.19 -0.13,-0.6 -0.38,-0.99 -0.38,-0.99 0,0 -0.64,-0.19 -0.76,-1.04 -0.27,0.28 -0.81,-0.25 -0.9,-0.99 -0.23,0.49 -0.55,0 -0.77,-0.75 -0.08,0.12 -0.51,0.33 -0.53,-0.11 -0.02,-0.44 -0.05,-0.61 -0.05,-0.61 0,0 -0.65,-0.48 -0.66,-0.77 -0.49,-0.52 -0.96,-1.14 -1.01,-1.21 -0.06,-0.07 -0.31,-0.17 -0.42,-0.4 -0.18,-0.24 -0.54,-0.21 -0.72,-0.47 -0.18,-0.26 -0.57,-0.49 -0.79,-0.78 -0.23,-0.3 -0.94,-0.43 -1.1,-0.7 -0.79,0.32 -2.16,1.37 -2.43,1.6 -0.27,0.23 -2.84,3.51 -4.02,4.96 -1.17,1.46 -2.17,2.74 -2.24,2.16 -0.07,-0.57 0.44,-0.93 0.72,-1.26 0.28,-0.33 0.6,-0.64 0.69,-1.07 0.09,-0.43 0.48,-1.12 0.85,-1.5 0.37,-0.39 0.86,-1.28 1.13,-1.73 0.28,-0.45 0.07,-0.72 0.13,-0.96 0.06,-0.23 -0.27,-0.65 0.01,-0.84 0.09,-0.13 -0.13,-0.3 -0.49,-0.23 -0.35,0.08 -0.47,-0.01 -0.61,-0.32 -0.55,0.01 -0.8,-0.11 -0.92,-0.29 -0.8,0.11 -3.31,0.62 -3.72,0.24 -0.66,0.06 -3.16,0.34 -3.03,-0.14 0.13,-0.48 5.95,-1.16 5.95,-1.16l4.62 -1.08 0.62 -0.39c0,0 -0.35,-0.53 0.25,-1.11 -0.22,-0.62 -1.35,-2.64 -1.13,-3.18 -0.65,-0.99 -1.08,-1.69 -1.08,-1.69 0,0 -0.46,-0.41 -0.46,-0.6 -0.78,-0.23 -0.85,-0.34 -0.85,-0.34l0.29 -0.2 -0.76 -0.42 0.23 -0.11c0,0 -0.67,-0.49 -0.66,-0.64 0.01,-0.16 -0.23,-0.25 -0.41,-0.36 -0.18,-0.11 -0.44,-0.39 -0.52,-0.51 0,0 -1.02,-0.38 -0.9,-0.47 0.13,-0.08 0.1,-0.21 0.1,-0.21 0,0 -1.33,-0.35 -1.11,-0.48 0.21,-0.13 0.26,-0.24 0.26,-0.24 0,0 -1.46,-0.21 -1.28,-0.34 0.18,-0.12 2.94,0.2 2.57,0.08 -0.38,-0.13 -2.4,-0.57 -2.09,-0.7 0.32,-0.14 4.94,0.96 4.45,0.73 -0.5,-0.24 -2.57,-0.89 -2.03,-0.88 0.54,0.01 5.57,1.76 6.53,2.01 0.96,0.26 2.19,0.95 2.59,1.52 0.39,0.56 0.53,1.05 0.42,1.3 -0.11,0.25 -0.23,1.55 0.01,2.43 0.25,0.89 0.86,1.32 1.06,1.25 0.19,-0.07 2.34,-0.58 2.93,0.41 0.45,0.11 0.64,0.45 0.46,0.78 -0.12,-0.26 -0.32,-0.4 -0.48,-0.16 -0.19,0.13 -1.33,1.07 -1.3,1.17z"/>
     <path class="fil1 str1" d="M14.3 23.95c0,0 0.93,0.74 1.71,0.82 0,0 0.76,0.1 1.43,1.31 0.67,1.22 0.75,1.72 1.11,2.57 0.36,0.84 0.7,3.28 0.26,3.53 0.12,0.36 -0.06,1.73 -0.26,1.63 -0.15,-0.21 -0.12,-1.23 -0.18,-1.35 -0.07,0.35 0.01,1.62 -0.2,1.61 -0.21,-0.01 -0.3,-0.91 -0.3,-0.91 0,0 -0.29,0.3 -0.36,-0.07 -0.06,-0.36 -0.19,-0.66 -0.19,-0.66 0,0 -0.28,0.29 -0.38,-0.13 -0.09,-0.43 -0.27,-0.7 -0.27,-0.7 0,0 -0.45,-0.14 -0.54,-0.74 -0.18,0.19 -0.57,-0.18 -0.63,-0.7 -0.17,0.35 -0.4,0 -0.55,-0.53 -0.06,0.08 -0.36,0.23 -0.37,-0.08 -0.02,-0.31 -0.04,-0.43 -0.04,-0.43 0,0 -0.46,-0.34 -0.47,-0.55 -0.34,-0.37 -0.68,-0.8 -0.71,-0.86 -0.04,-0.05 -0.22,-0.12 -0.3,-0.28 -0.12,-0.17 -0.38,-0.14 -0.51,-0.33 -0.13,-0.18 -0.4,-0.34 -0.56,-0.55 -0.16,-0.21 -0.66,-0.3 -0.78,-0.5 -0.56,0.22 -1.53,0.97 -1.72,1.13 -0.19,0.17 -2.01,2.49 -2.84,3.52 -0.84,1.03 -1.54,1.94 -1.59,1.53 -0.05,-0.41 0.31,-0.66 0.51,-0.9 0.2,-0.23 0.42,-0.45 0.49,-0.75 0.06,-0.31 0.34,-0.8 0.6,-1.07 0.26,-0.27 0.61,-0.9 0.8,-1.22 0.2,-0.32 0.05,-0.51 0.09,-0.68 0.05,-0.17 -0.19,-0.46 0.01,-0.6 0.06,-0.09 -0.09,-0.21 -0.34,-0.16 -0.26,0.06 -0.34,0 -0.44,-0.23 -0.39,0.01 -0.56,-0.07 -0.65,-0.2 -0.57,0.08 -2.35,0.44 -2.64,0.17 -0.46,0.04 -2.24,0.24 -2.14,-0.1 0.09,-0.34 4.21,-0.82 4.21,-0.82l3.27 -0.76 0.44 -0.28c0,0 -0.24,-0.38 0.18,-0.79 -0.16,-0.44 -0.96,-1.87 -0.8,-2.25 -0.46,-0.7 -0.76,-1.19 -0.76,-1.19 0,0 -0.33,-0.29 -0.33,-0.43 -0.55,-0.17 -0.6,-0.24 -0.6,-0.24l0.2 -0.14 -0.54 -0.3 0.17 -0.08c0,0 -0.48,-0.34 -0.47,-0.46 0.01,-0.11 -0.16,-0.17 -0.29,-0.25 -0.13,-0.08 -0.31,-0.27 -0.37,-0.35 0,0 -0.72,-0.28 -0.63,-0.34 0.08,-0.06 0.06,-0.15 0.06,-0.15 0,0 -0.94,-0.25 -0.78,-0.34 0.15,-0.09 0.18,-0.17 0.18,-0.17 0,0 -1.03,-0.15 -0.9,-0.24 0.12,-0.09 2.08,0.14 1.82,0.05 -0.27,-0.09 -1.7,-0.39 -1.48,-0.49 0.22,-0.1 3.49,0.68 3.14,0.52 -0.34,-0.17 -1.81,-0.63 -1.43,-0.62 0.39,0.01 3.95,1.24 4.62,1.42 0.68,0.18 1.56,0.67 1.84,1.07 0.28,0.4 0.37,0.75 0.29,0.93 -0.07,0.17 -0.16,1.09 0.02,1.72 0.17,0.62 0.6,0.93 0.74,0.88 0.14,-0.05 1.66,-0.41 2.08,0.29 0.31,0.08 0.45,0.32 0.32,0.55 -0.08,-0.18 -0.22,-0.28 -0.34,-0.11 -0.13,0.09 -0.94,0.76 -0.91,0.83z"/>
    </g>
   </g>
   <path class="fil2 str2" d="M49.65 27.01l0 -5.06 0.99 0c0.95,1.74 1.93,3.05 2.95,3.93 1.03,0.88 2.03,1.32 3.01,1.32 0.63,0 1.19,-0.21 1.69,-0.64 0.49,-0.42 0.74,-0.9 0.74,-1.44 0,-0.71 -0.18,-1.2 -0.56,-1.47 -1.4,-0.97 -2.74,-1.71 -4.02,-2.23 -3.4,-1.31 -5.1,-3.18 -5.1,-5.61 0,-1.45 0.53,-2.65 1.6,-3.62 1.06,-0.97 2.49,-1.45 4.3,-1.45 0.91,0 1.76,0.1 2.55,0.31 0.79,0.19 1.67,0.48 2.63,0.86l0.19 4.58 -0.91 0c-1,-1.55 -1.99,-2.71 -2.97,-3.5 -0.99,-0.78 -1.95,-1.18 -2.9,-1.18 -0.6,0 -1.08,0.2 -1.48,0.61 -0.38,0.41 -0.58,0.85 -0.58,1.34 0,0.63 0.24,1.13 0.72,1.5 0.48,0.36 1.5,0.91 3.04,1.63 1.55,0.72 2.9,1.42 4.06,2.08 0.73,0.4 1.31,0.96 1.74,1.68 0.43,0.72 0.65,1.51 0.65,2.36 0,0.99 -0.27,1.9 -0.82,2.73 -0.55,0.84 -1.31,1.51 -2.29,2 -0.96,0.48 -2.06,0.73 -3.27,0.73 -1.71,0 -3.7,-0.49 -5.96,-1.46zm0.68 -3.36l0 2.41c0.62,0.28 1.65,0.63 3.08,1.02 -0.77,-0.55 -1.34,-1.05 -1.7,-1.48 -0.38,-0.44 -0.84,-1.09 -1.38,-1.95zm9.09 2.45c0.33,-0.32 0.58,-0.61 0.74,-0.88 0.15,-0.26 0.24,-0.62 0.24,-1.07 0,-1.38 -0.97,-2.47 -2.89,-3.29 -1.73,-0.74 -3.1,-1.4 -4.1,-1.97 -1,-0.58 -1.73,-1.16 -2.17,-1.78 -0.45,-0.61 -0.67,-1.38 -0.67,-2.29 0,-0.55 0.15,-1.17 0.45,-1.85 -0.33,0.41 -0.58,0.82 -0.78,1.23 -0.19,0.4 -0.28,0.9 -0.28,1.49 0,1.22 0.42,2.21 1.26,2.98 0.84,0.76 2.09,1.52 3.74,2.31 1.66,0.77 2.86,1.41 3.58,1.9 0.73,0.5 1.1,1.19 1.1,2.06 0,0.32 -0.08,0.71 -0.22,1.16zm-0.15 -11.32l-0.16 -2.22c-0.82,-0.35 -1.46,-0.58 -1.91,-0.71 -0.47,-0.13 -1.13,-0.2 -2.01,-0.2 0.93,0.34 1.66,0.73 2.21,1.18 0.55,0.44 1.17,1.09 1.87,1.95zm13 13.17l-8.57 0 0 -1.07 0.28 0c0.67,0 1.16,-0.11 1.45,-0.34 0.29,-0.24 0.46,-0.51 0.51,-0.84 0.05,-0.32 0.07,-0.81 0.07,-1.48l0 -17.71c0,-0.96 -0.16,-1.74 -0.47,-2.31 -0.32,-0.57 -0.93,-1 -1.84,-1.28l0 -0.76 5.88 -2.06 0.72 0 0 19.93c2.91,-2.91 4.36,-4.96 4.36,-6.13 0,-0.46 -0.17,-0.84 -0.51,-1.15 -0.34,-0.31 -0.86,-0.51 -1.59,-0.58l0 -1.11 7.9 0 0 1.11c-0.12,0.02 -0.3,0.07 -0.52,0.13 -0.22,0.06 -0.46,0.14 -0.72,0.24 -0.25,0.1 -0.51,0.24 -0.8,0.42 -0.28,0.2 -0.6,0.47 -0.94,0.83 -0.62,0.66 -0.96,1.03 -1.01,1.1l-1.2 1.62 3.07 6.14c0.65,1.25 1.23,2.21 1.76,2.88 0.52,0.68 1.1,1.12 1.73,1.35l0 1.07 -7.89 0 0 -1.07c0.84,-0.11 1.26,-0.41 1.26,-0.91 0,-0.15 -0.05,-0.31 -0.13,-0.48 -0.09,-0.18 -0.26,-0.5 -0.52,-0.98l-2.47 -4.79 -1.78 1.78 0 3.72c0,1.07 0.66,1.63 1.97,1.66l0 1.07zm5.31 -15.82l-3.25 0c0.62,0.47 0.94,1.05 0.94,1.74 0,0.27 -0.07,0.59 -0.22,0.98 0.99,-1.35 1.83,-2.26 2.53,-2.72zm-1.48 11.32l-2.64 -5.16 -0.9 0.91 2.71 5.42c0.09,0.16 0.17,0.3 0.24,0.43 0.07,0.13 0.14,0.27 0.2,0.42 0.06,0.16 0.09,0.31 0.09,0.47 0,0.28 -0.17,0.6 -0.53,0.94 0.52,-0.01 0.91,-0.13 1.18,-0.38 0.28,-0.25 0.41,-0.57 0.41,-0.97 0,-0.39 -0.25,-1.08 -0.76,-2.08zm-8.23 1.33l0 -17.96c0,-1.12 -0.06,-1.97 -0.19,-2.56 -0.13,-0.59 -0.43,-1.02 -0.9,-1.31 -0.46,-0.29 -1.22,-0.41 -2.25,-0.36 0.82,0.38 1.38,0.85 1.67,1.43 0.28,0.58 0.42,1.37 0.42,2.38l0 18.23c0,0.63 -0.05,1.11 -0.15,1.44 -0.1,0.32 -0.33,0.64 -0.68,0.93 1.39,-0.04 2.08,-0.78 2.08,-2.22zm26.83 -13.72l6.38 0 0 0.99c-0.6,0.27 -1.12,0.6 -1.53,0.99 -0.43,0.4 -0.78,0.84 -1.07,1.34 -0.29,0.49 -0.6,1.14 -0.94,1.93 -0.34,0.79 -0.68,1.64 -1.01,2.54l-4.98 13.21c-1.33,3.6 -3.12,5.39 -5.34,5.39 -0.72,0 -1.35,-0.21 -1.88,-0.63 -0.52,-0.42 -0.79,-0.92 -0.79,-1.51 0,-0.52 0.21,-0.95 0.62,-1.3 0.42,-0.35 0.91,-0.52 1.48,-0.52 0.27,0 0.57,0.07 0.9,0.22 0.32,0.14 0.65,0.29 0.96,0.44 0.31,0.15 0.6,0.22 0.86,0.23 0.82,-0.01 1.55,-0.89 2.2,-2.67l0.99 -2.77 -5.58 -13.53c-0.15,-0.4 -0.31,-0.81 -0.49,-1.23 -0.18,-0.42 -0.37,-0.78 -0.58,-1.09 -0.22,-0.3 -0.48,-0.55 -0.8,-0.74 -0.32,-0.19 -0.71,-0.29 -1.19,-0.3l0 -0.99 9.64 0 0 0.99c-0.77,0.05 -1.35,0.17 -1.75,0.35 -0.41,0.19 -0.6,0.56 -0.6,1.1 0,0.55 0.17,1.26 0.52,2.14l3.07 7.4 2.31 -5.93c0.31,-0.77 0.47,-1.6 0.47,-2.49 0,-1.44 -0.62,-2.3 -1.87,-2.57l0 -0.99zm4.33 1.07l-2.93 0c0.38,0.31 0.62,0.62 0.75,0.95 0.13,0.33 0.23,0.84 0.29,1.54 0.29,-0.66 0.56,-1.16 0.83,-1.52 0.27,-0.35 0.63,-0.68 1.06,-0.97zm-7.09 15.82l0.61 -1.55 -4.78 -11.55c-0.36,-0.88 -0.66,-1.5 -0.91,-1.89 -0.24,-0.37 -0.52,-0.64 -0.84,-0.77 -0.33,-0.15 -0.76,-0.2 -1.29,-0.14 0.49,0.46 0.83,0.87 1.01,1.24 0.18,0.35 0.45,1 0.84,1.93l5.36 12.73zm-5.08 8.91c-1.01,-0.25 -1.52,-0.75 -1.52,-1.51 0,-0.47 0.3,-0.86 0.9,-1.17 -0.38,-0.11 -0.65,-0.17 -0.79,-0.17 -0.38,0 -0.7,0.12 -0.94,0.37 -0.24,0.25 -0.36,0.55 -0.36,0.9 0,0.51 0.24,0.92 0.7,1.23 0.48,0.31 1.14,0.42 2.01,0.35zm39.18 -19.83l-4.55 11.44 -1.43 0 -4.19 -9.58 -3.84 9.58 -1.42 0 -5.9 -13.35c-0.45,-1.07 -0.86,-1.81 -1.23,-2.24 -0.36,-0.42 -0.89,-0.66 -1.56,-0.71l0 -1.11 8.37 0 0 1.11c-0.93,0.04 -1.41,0.42 -1.41,1.17 0,0.22 0.04,0.47 0.11,0.74 0.08,0.27 0.16,0.52 0.26,0.75 0.11,0.23 0.22,0.49 0.36,0.77l3.43 7.63 2.22 -5.66 -1.02 -2.2c-0.41,-0.92 -0.8,-1.61 -1.17,-2.08 -0.37,-0.46 -0.86,-0.84 -1.48,-1.12l0 -1.11 9.1 0 0 1.11c-0.68,0 -1.22,0.09 -1.61,0.27 -0.38,0.19 -0.58,0.6 -0.58,1.23 0,0.34 0.04,0.64 0.14,0.91 0.09,0.27 0.31,0.81 0.66,1.62l3.15 7.03 2 -5.14c0.11,-0.27 0.24,-0.57 0.39,-0.91 0.14,-0.34 0.28,-0.73 0.38,-1.17 0.12,-0.44 0.17,-0.9 0.17,-1.39 0,-0.61 -0.17,-1.14 -0.5,-1.6 -0.33,-0.45 -0.8,-0.74 -1.42,-0.85l0 -1.11 6.37 0 0 1.11c-1.42,0.39 -2.69,2.01 -3.8,4.86zm1.67 -4.9l-2.76 0c0.39,0.27 0.67,0.57 0.81,0.91 0.15,0.35 0.25,0.82 0.32,1.42 0.11,-0.43 0.32,-0.87 0.63,-1.3 0.31,-0.43 0.64,-0.78 1,-1.03zm-12.79 3.28l5.4 12.19 0.22 0c0.23,-0.38 0.35,-0.72 0.35,-1.04 0,-0.42 -0.07,-0.8 -0.2,-1.14 -0.14,-0.34 -0.32,-0.75 -0.56,-1.24l-3.8 -8.58c-0.49,-1.09 -0.88,-1.86 -1.16,-2.29 -0.29,-0.44 -0.61,-0.74 -0.97,-0.91 -0.35,-0.15 -0.85,-0.23 -1.48,-0.23 0.49,0.32 0.89,0.73 1.2,1.25 0.31,0.51 0.65,1.18 1,1.99zm-8.98 0.91l4.96 11.28 0.3 0c0.19,-0.42 0.28,-0.77 0.28,-1.04 0,-0.45 -0.34,-1.39 -1,-2.85l-3.67 -8.38c-0.4,-0.91 -0.72,-1.57 -0.97,-2 -0.24,-0.41 -0.53,-0.72 -0.87,-0.91 -0.34,-0.18 -0.83,-0.27 -1.46,-0.25 0.26,0.19 0.51,0.45 0.73,0.79 0.23,0.33 0.49,0.79 0.78,1.38 0.27,0.58 0.58,1.24 0.92,1.98zm39.81 6.85l0.74 0.6c-0.55,1.08 -1.22,1.96 -1.98,2.65 -0.77,0.7 -1.62,1.21 -2.53,1.55 -0.93,0.33 -1.89,0.5 -2.89,0.5 -1.36,0 -2.62,-0.35 -3.79,-1.02 -1.17,-0.69 -2.09,-1.67 -2.78,-2.96 -0.67,-1.28 -1.02,-2.75 -1.02,-4.38 0,-1.29 0.21,-2.5 0.62,-3.63 0.42,-1.14 1,-2.13 1.73,-2.99 0.73,-0.87 1.59,-1.54 2.56,-2.02 0.97,-0.48 2.01,-0.73 3.11,-0.73 1.11,0 2.17,0.25 3.18,0.73 1.01,0.48 1.81,1.14 2.4,1.99 0.43,0.62 0.75,1.25 0.94,1.9 0.19,0.65 0.34,1.44 0.45,2.35l-11.19 0c0.05,1.34 0.26,2.47 0.66,3.4 0.39,0.93 0.89,1.68 1.51,2.25 0.63,0.56 1.29,0.97 2,1.22 0.71,0.24 1.38,0.37 2.02,0.37 1.56,0 2.97,-0.6 4.26,-1.78zm-3.28 -6.69l1.29 0c-0.04,-1.45 -0.32,-2.51 -0.85,-3.21 -0.53,-0.68 -1.43,-1.14 -2.68,-1.37 0.8,0.37 1.37,0.85 1.72,1.45 0.34,0.6 0.52,1.51 0.52,2.74l0 0.39zm-7.06 0l6.45 0 0 -0.64c0,-0.75 -0.12,-1.42 -0.38,-2.01 -0.26,-0.58 -0.62,-1.03 -1.06,-1.35 -0.46,-0.31 -0.97,-0.47 -1.55,-0.47 -0.94,0 -1.73,0.43 -2.39,1.3 -0.65,0.87 -1.01,1.93 -1.07,3.17zm0.17 -3.81c-2.31,1.9 -3.47,4.4 -3.47,7.5 0,2.24 0.69,4.06 2.07,5.49 1.37,1.42 2.97,2.13 4.77,2.13 1.05,0 2.1,-0.22 3.15,-0.66 1.06,-0.44 1.95,-1.1 2.69,-1.97 -0.76,0.5 -1.53,0.9 -2.31,1.22 -0.79,0.31 -1.73,0.47 -2.82,0.47 -1.84,0 -3.37,-0.68 -4.6,-2.02 -1.23,-1.33 -1.85,-3.08 -1.85,-5.23 0,-1.37 0.2,-2.59 0.62,-3.67 0.41,-1.08 0.99,-2.17 1.75,-3.26zm14.9 12.26l0 -18.3c0,-0.99 -0.14,-1.75 -0.44,-2.3 -0.3,-0.56 -0.98,-1.04 -2.06,-1.45l0 -0.76 6.03 -2.06 0.72 0 0 24.16c0,1 0.11,1.7 0.33,2.08 0.21,0.39 0.77,0.58 1.66,0.58l0.5 0 0 1.07 -9.24 0 0 -1.07 0.45 0c0.73,0 1.25,-0.15 1.57,-0.48 0.33,-0.32 0.48,-0.81 0.48,-1.47zm1.83 -0.79l0 -17.39c0,-0.92 -0.04,-1.65 -0.12,-2.2 -0.09,-0.55 -0.31,-1 -0.69,-1.37 -0.38,-0.36 -0.98,-0.55 -1.81,-0.55 -0.41,0 -0.74,0.01 -0.98,0.04 1.13,0.34 1.81,0.83 2.04,1.48 0.23,0.66 0.34,1.53 0.34,2.6l0 18.07c0,0.87 -0.25,1.56 -0.75,2.06 0.87,-0.03 1.41,-0.28 1.63,-0.74 0.22,-0.46 0.34,-1.12 0.34,-2zm8.46 0.79l0 -18.3c0,-0.99 -0.15,-1.75 -0.44,-2.3 -0.3,-0.56 -0.99,-1.04 -2.07,-1.45l0 -0.76 6.04 -2.06 0.72 0 0 24.16c0,1 0.11,1.7 0.32,2.08 0.22,0.39 0.77,0.58 1.66,0.58l0.5 0 0 1.07 -9.24 0 0 -1.07 0.45 0c0.73,0 1.26,-0.15 1.58,-0.48 0.32,-0.32 0.48,-0.81 0.48,-1.47zm1.82 -0.79l0 -17.39c0,-0.92 -0.04,-1.65 -0.12,-2.2 -0.08,-0.55 -0.31,-1 -0.69,-1.37 -0.37,-0.36 -0.98,-0.55 -1.81,-0.55 -0.4,0 -0.73,0.01 -0.98,0.04 1.13,0.34 1.82,0.83 2.04,1.48 0.23,0.66 0.35,1.53 0.35,2.6l0 18.07c0,0.87 -0.26,1.56 -0.76,2.06 0.87,-0.03 1.41,-0.28 1.63,-0.74 0.23,-0.46 0.34,-1.12 0.34,-2z"/>
   <path class="fil3" d="M51.52 34.11l-0.47 2.88c-0.02,0.14 -0.04,0.26 -0.04,0.36 0,0.12 0.05,0.22 0.14,0.3 0.14,0.12 0.38,0.18 0.72,0.18 0.57,0 1.13,-0.16 1.67,-0.47 0.21,-0.12 0.37,-0.18 0.47,-0.18 0.13,0 0.23,0.06 0.31,0.16 0.08,0.1 0.12,0.24 0.12,0.41 0,0.22 -0.07,0.41 -0.2,0.57 -0.2,0.24 -0.58,0.45 -1.16,0.65 -0.57,0.2 -1.07,0.3 -1.49,0.3 -0.34,0 -0.67,-0.08 -0.99,-0.23 -0.23,-0.11 -0.41,-0.28 -0.55,-0.51 -0.14,-0.23 -0.21,-0.5 -0.21,-0.81 0,-0.15 0.01,-0.3 0.04,-0.45l0.52 -3.16 -0.41 0c-0.24,0 -0.41,-0.05 -0.5,-0.15 -0.09,-0.1 -0.13,-0.24 -0.13,-0.42 0,-0.28 0.1,-0.52 0.31,-0.71 0.12,-0.11 0.3,-0.16 0.56,-0.16l0.41 0 0.21 -1.29c0.06,-0.35 0.15,-0.59 0.28,-0.74 0.13,-0.15 0.28,-0.22 0.45,-0.22 0.12,0 0.23,0.05 0.32,0.15 0.08,0.11 0.12,0.23 0.12,0.37 0,0.1 -0.01,0.24 -0.04,0.43l-0.22 1.3 2.08 0c0.25,0 0.42,0.05 0.51,0.15 0.09,0.1 0.13,0.25 0.13,0.43 0,0.27 -0.1,0.51 -0.31,0.7 -0.12,0.11 -0.31,0.16 -0.57,0.16l-2.08 0zm7.15 -1.44l-0.14 0.9c0.54,-0.44 0.96,-0.74 1.26,-0.88 0.29,-0.15 0.55,-0.22 0.79,-0.22 0.32,0 0.6,0.13 0.85,0.38 0.24,0.26 0.36,0.49 0.36,0.7 0,0.23 -0.07,0.44 -0.21,0.62 -0.14,0.18 -0.31,0.27 -0.48,0.27 -0.14,0 -0.27,-0.09 -0.4,-0.27 -0.12,-0.17 -0.24,-0.26 -0.36,-0.26 -0.14,0 -0.36,0.1 -0.66,0.29 -0.3,0.2 -0.79,0.6 -1.46,1.22l-0.36 2.18 1.82 0c0.3,0 0.49,0.04 0.58,0.13 0.09,0.09 0.14,0.23 0.14,0.44 0,0.2 -0.11,0.43 -0.33,0.68 -0.12,0.12 -0.33,0.19 -0.63,0.19l-3.69 0c-0.25,0 -0.42,-0.05 -0.51,-0.13 -0.09,-0.09 -0.13,-0.23 -0.13,-0.44 0,-0.21 0.11,-0.43 0.32,-0.67 0.12,-0.13 0.33,-0.2 0.63,-0.2l0.67 0 0.58 -3.49 -0.64 0c-0.29,0 -0.49,-0.04 -0.58,-0.13 -0.09,-0.09 -0.13,-0.23 -0.13,-0.44 0,-0.2 0.11,-0.43 0.32,-0.67 0.12,-0.13 0.33,-0.2 0.63,-0.2l1.76 0zm9.43 0l-0.82 4.93c0.46,0 0.73,0.04 0.82,0.13 0.09,0.09 0.13,0.23 0.13,0.44 0,0.2 -0.11,0.43 -0.33,0.67 -0.11,0.13 -0.32,0.2 -0.62,0.2l-1.16 0 0.06 -0.33c-0.77,0.37 -1.45,0.56 -2.05,0.56 -0.47,0 -0.84,-0.16 -1.13,-0.47 -0.29,-0.31 -0.43,-0.7 -0.43,-1.17 0,-0.13 0.01,-0.27 0.04,-0.43l0.54 -3.09 -0.42 0c-0.3,0 -0.5,-0.04 -0.58,-0.13 -0.09,-0.09 -0.14,-0.23 -0.14,-0.44 0,-0.2 0.11,-0.43 0.33,-0.67 0.12,-0.13 0.33,-0.2 0.63,-0.2l1.56 0 -0.75 4.28c-0.02,0.14 -0.04,0.26 -0.04,0.35 0,0.14 0.05,0.27 0.16,0.37 0.09,0.11 0.25,0.16 0.45,0.16 0.23,0 0.5,-0.06 0.79,-0.17 0.28,-0.11 0.66,-0.32 1.11,-0.62l0.49 -2.93 -0.65 0c-0.3,0 -0.49,-0.04 -0.58,-0.13 -0.09,-0.09 -0.14,-0.23 -0.14,-0.44 0,-0.2 0.11,-0.43 0.33,-0.67 0.12,-0.13 0.33,-0.2 0.63,-0.2l1.77 0zm5.95 0.26c0.17,-0.16 0.32,-0.24 0.46,-0.24 0.13,0 0.23,0.05 0.32,0.16 0.09,0.1 0.13,0.23 0.13,0.37 0,0.09 -0.02,0.23 -0.05,0.42l-0.15 0.92c-0.06,0.35 -0.16,0.6 -0.29,0.74 -0.12,0.15 -0.27,0.22 -0.44,0.22 -0.16,0 -0.28,-0.06 -0.36,-0.17 -0.07,-0.09 -0.1,-0.26 -0.1,-0.52 0,-0.26 -0.07,-0.45 -0.2,-0.58 -0.26,-0.23 -0.62,-0.34 -1.09,-0.34 -0.72,0 -1.29,0.34 -1.71,1.03 -0.29,0.47 -0.43,0.97 -0.43,1.5 0,0.42 0.13,0.76 0.38,1.01 0.25,0.25 0.7,0.38 1.34,0.38 0.46,0 0.85,-0.06 1.17,-0.18 0.19,-0.07 0.38,-0.2 0.56,-0.37 0.19,-0.18 0.35,-0.27 0.48,-0.27 0.13,0 0.24,0.06 0.32,0.17 0.09,0.11 0.13,0.25 0.13,0.42 0,0.33 -0.18,0.64 -0.54,0.94 -0.6,0.48 -1.42,0.73 -2.46,0.73 -0.87,0 -1.51,-0.24 -1.92,-0.71 -0.41,-0.46 -0.61,-1.06 -0.61,-1.79 0,-0.69 0.15,-1.38 0.46,-2.08 0.32,-0.7 0.75,-1.24 1.3,-1.63 0.55,-0.39 1.14,-0.59 1.77,-0.59 0.31,0 0.59,0.04 0.85,0.12 0.25,0.07 0.48,0.19 0.68,0.34zm3.44 3.72l-0.39 2.39 -1.31 0c-0.3,0 -0.5,-0.05 -0.58,-0.13 -0.09,-0.09 -0.14,-0.23 -0.14,-0.44 0,-0.21 0.11,-0.43 0.33,-0.67 0.12,-0.14 0.33,-0.2 0.63,-0.2l0.18 0 1.03 -6.22 -0.42 0c-0.3,0 -0.49,-0.04 -0.58,-0.13 -0.09,-0.08 -0.14,-0.23 -0.14,-0.44 0,-0.2 0.11,-0.43 0.33,-0.67 0.12,-0.13 0.33,-0.2 0.63,-0.2l1.54 0 -0.8 4.85 1.03 -0.91c-0.05,-0.16 -0.07,-0.28 -0.07,-0.35 0,-0.27 0.1,-0.5 0.31,-0.7 0.12,-0.1 0.31,-0.16 0.57,-0.16l1.28 0c0.3,0 0.5,0.05 0.59,0.13 0.09,0.09 0.13,0.24 0.13,0.44 0,0.21 -0.11,0.43 -0.32,0.67 -0.12,0.14 -0.33,0.2 -0.63,0.2l-0.32 0 -1.6 1.41 1.48 2.08 0.33 0c0.24,0 0.4,0.04 0.49,0.13 0.09,0.09 0.13,0.23 0.13,0.44 0,0.2 -0.11,0.43 -0.33,0.68 -0.11,0.12 -0.32,0.19 -0.62,0.19l-1.23 0c-0.23,0 -0.39,-0.05 -0.48,-0.15 -0.08,-0.1 -0.13,-0.24 -0.13,-0.42 0,-0.24 0.1,-0.47 0.29,-0.7l-0.96 -1.34 -0.25 0.22z"/>
   <path class="fil3" d="M98.34 35.35l0.88 0.73c-0.09,0.22 -0.19,0.46 -0.32,0.72 -0.13,0.26 -0.26,0.46 -0.37,0.61 0.16,0.23 0.37,0.5 0.62,0.8l-0.76 1.1c-0.1,-0.07 -0.22,-0.19 -0.37,-0.36 -0.15,-0.16 -0.28,-0.32 -0.38,-0.47 -0.2,0.22 -0.46,0.41 -0.77,0.56 -0.31,0.15 -0.64,0.22 -1,0.22 -0.64,0 -1.15,-0.23 -1.51,-0.71 -0.37,-0.47 -0.56,-1.05 -0.56,-1.74 0,-0.44 0.08,-0.84 0.22,-1.22 0.15,-0.37 0.34,-0.7 0.57,-0.96 0.17,-0.2 0.44,-0.43 0.82,-0.71 -0.19,-0.55 -0.28,-1.04 -0.28,-1.45 0,-0.6 0.16,-1.11 0.48,-1.53 0.32,-0.41 0.74,-0.61 1.26,-0.61 0.44,0 0.8,0.16 1.06,0.49 0.26,0.33 0.39,0.71 0.39,1.15 0,0.37 -0.11,0.78 -0.34,1.21 -0.22,0.43 -0.59,0.83 -1.11,1.19 0.16,0.38 0.36,0.81 0.6,1.3 0.15,0.3 0.27,0.51 0.35,0.64 0.15,-0.2 0.32,-0.52 0.52,-0.96zm-1.91 -2.13c0.33,-0.24 0.57,-0.48 0.7,-0.72 0.1,-0.17 0.15,-0.34 0.15,-0.52 0,-0.16 -0.04,-0.3 -0.12,-0.4 -0.08,-0.11 -0.18,-0.16 -0.32,-0.16 -0.17,0 -0.31,0.08 -0.42,0.25 -0.12,0.16 -0.17,0.37 -0.17,0.64 0,0.25 0.06,0.55 0.18,0.91zm-0.58 1.89c-0.56,0.39 -0.84,0.9 -0.84,1.54 0,0.36 0.08,0.66 0.25,0.89 0.17,0.23 0.39,0.35 0.66,0.35 0.34,0 0.68,-0.16 1.04,-0.49 -0.43,-0.72 -0.8,-1.49 -1.11,-2.29zm6.7 -5.08l-0.49 3.21c0.57,-0.46 1.13,-0.69 1.67,-0.69 0.61,0 1.11,0.27 1.5,0.79 0.39,0.53 0.58,1.18 0.58,1.95 0,0.67 -0.13,1.32 -0.38,1.96 -0.26,0.64 -0.65,1.15 -1.16,1.52 -0.51,0.38 -1.04,0.57 -1.61,0.57 -0.55,0 -1.03,-0.2 -1.45,-0.58l-0.05 0.35 -1.29 0c-0.22,0 -0.38,-0.05 -0.46,-0.13 -0.08,-0.09 -0.12,-0.23 -0.12,-0.44 0,-0.21 0.1,-0.43 0.3,-0.67 0.11,-0.13 0.3,-0.2 0.57,-0.2l0.18 0 0.95 -6.21 -0.39 0c-0.28,0 -0.46,-0.04 -0.54,-0.12 -0.08,-0.09 -0.12,-0.24 -0.12,-0.44 0,-0.21 0.1,-0.43 0.3,-0.67 0.11,-0.13 0.3,-0.2 0.58,-0.2l1.43 0zm0.33 7.87c0.57,0 1.02,-0.22 1.36,-0.65 0.34,-0.44 0.51,-0.98 0.51,-1.63 0,-0.46 -0.12,-0.85 -0.35,-1.16 -0.23,-0.31 -0.54,-0.47 -0.91,-0.47 -0.5,0 -0.94,0.26 -1.33,0.78 -0.38,0.52 -0.57,1.1 -0.57,1.73 0,0.41 0.11,0.75 0.32,1.01 0.22,0.26 0.54,0.39 0.97,0.39zm9.05 -5.14l-0.76 4.91c0.43,0 0.68,0.05 0.76,0.13 0.08,0.09 0.12,0.23 0.12,0.44 0,0.2 -0.1,0.43 -0.3,0.67 -0.11,0.13 -0.3,0.2 -0.58,0.2l-1.07 0 0.05 -0.33c-0.71,0.37 -1.34,0.56 -1.88,0.56 -0.44,0 -0.78,-0.16 -1.05,-0.47 -0.26,-0.31 -0.4,-0.7 -0.4,-1.16 0,-0.14 0.02,-0.28 0.04,-0.44l0.5 -3.08 -0.39 0c-0.28,0 -0.45,-0.04 -0.54,-0.13 -0.08,-0.09 -0.12,-0.23 -0.12,-0.44 0,-0.2 0.1,-0.43 0.3,-0.67 0.11,-0.13 0.3,-0.19 0.58,-0.19l1.44 0 -0.69 4.26c-0.02,0.15 -0.03,0.26 -0.03,0.35 0,0.14 0.04,0.27 0.14,0.37 0.09,0.11 0.23,0.16 0.41,0.16 0.22,0 0.47,-0.05 0.73,-0.17 0.27,-0.11 0.61,-0.32 1.04,-0.62l0.44 -2.92 -0.6 0c-0.27,0 -0.45,-0.04 -0.53,-0.13 -0.09,-0.09 -0.13,-0.23 -0.13,-0.44 0,-0.2 0.1,-0.43 0.31,-0.67 0.1,-0.13 0.3,-0.19 0.57,-0.19l1.64 0zm4.79 1.67c-0.15,-0.15 -0.31,-0.26 -0.48,-0.33 -0.18,-0.08 -0.37,-0.11 -0.57,-0.11 -0.33,0 -0.61,0.06 -0.85,0.18 -0.23,0.13 -0.35,0.25 -0.35,0.38 0,0.08 0.04,0.16 0.12,0.24 0.1,0.1 0.35,0.19 0.74,0.26 0.6,0.12 1.04,0.24 1.31,0.37 0.28,0.13 0.5,0.33 0.67,0.61 0.16,0.28 0.25,0.59 0.25,0.93 0,0.69 -0.27,1.26 -0.8,1.7 -0.54,0.45 -1.16,0.68 -1.86,0.68 -0.3,0 -0.58,-0.04 -0.82,-0.11 -0.25,-0.07 -0.47,-0.17 -0.66,-0.31 -0.12,0.12 -0.24,0.19 -0.36,0.19 -0.13,0 -0.23,-0.06 -0.31,-0.16 -0.08,-0.11 -0.12,-0.23 -0.12,-0.38 0,-0.09 0.02,-0.23 0.05,-0.43l0.07 -0.48c0.05,-0.35 0.14,-0.6 0.26,-0.74 0.12,-0.15 0.26,-0.22 0.41,-0.22 0.13,0 0.22,0.05 0.29,0.14 0.07,0.1 0.11,0.27 0.12,0.5 0.13,0.19 0.3,0.33 0.51,0.42 0.21,0.09 0.46,0.14 0.75,0.14 0.51,0 0.91,-0.11 1.2,-0.34 0.13,-0.1 0.2,-0.22 0.2,-0.35 0,-0.18 -0.08,-0.33 -0.24,-0.43 -0.17,-0.1 -0.51,-0.2 -1.03,-0.28 -0.74,-0.12 -1.23,-0.31 -1.46,-0.58 -0.24,-0.27 -0.35,-0.62 -0.35,-1.04 0,-0.37 0.08,-0.72 0.26,-1.05 0.17,-0.33 0.43,-0.61 0.77,-0.84 0.45,-0.29 0.93,-0.44 1.44,-0.44 0.24,0 0.47,0.04 0.68,0.1 0.22,0.06 0.41,0.16 0.6,0.29 0.14,-0.12 0.26,-0.18 0.35,-0.18 0.11,0 0.2,0.05 0.28,0.15 0.08,0.11 0.12,0.23 0.12,0.37 0,0.09 -0.02,0.24 -0.04,0.43l-0.06 0.35c-0.05,0.34 -0.14,0.58 -0.26,0.73 -0.12,0.14 -0.26,0.22 -0.41,0.22 -0.13,0 -0.23,-0.06 -0.31,-0.16 -0.07,-0.11 -0.11,-0.25 -0.11,-0.42zm12.41 0c-0.14,-0.15 -0.3,-0.26 -0.48,-0.33 -0.17,-0.08 -0.36,-0.11 -0.57,-0.11 -0.33,0 -0.61,0.06 -0.84,0.18 -0.23,0.13 -0.35,0.25 -0.35,0.38 0,0.08 0.04,0.16 0.11,0.24 0.11,0.1 0.36,0.19 0.74,0.26 0.6,0.12 1.04,0.24 1.32,0.37 0.28,0.13 0.5,0.33 0.66,0.61 0.17,0.28 0.25,0.59 0.25,0.93 0,0.69 -0.27,1.26 -0.8,1.7 -0.53,0.45 -1.15,0.68 -1.86,0.68 -0.3,0 -0.57,-0.04 -0.82,-0.11 -0.24,-0.07 -0.46,-0.17 -0.65,-0.31 -0.13,0.12 -0.24,0.19 -0.36,0.19 -0.13,0 -0.23,-0.06 -0.31,-0.16 -0.08,-0.11 -0.12,-0.23 -0.12,-0.38 0,-0.09 0.01,-0.23 0.04,-0.43l0.08 -0.48c0.05,-0.35 0.13,-0.6 0.25,-0.74 0.12,-0.15 0.26,-0.22 0.42,-0.22 0.12,0 0.22,0.05 0.29,0.14 0.06,0.1 0.1,0.27 0.12,0.5 0.12,0.19 0.29,0.33 0.5,0.42 0.21,0.09 0.46,0.14 0.75,0.14 0.51,0 0.91,-0.11 1.21,-0.34 0.13,-0.1 0.2,-0.22 0.2,-0.35 0,-0.18 -0.09,-0.33 -0.25,-0.43 -0.16,-0.1 -0.5,-0.2 -1.02,-0.28 -0.74,-0.12 -1.23,-0.31 -1.47,-0.58 -0.23,-0.27 -0.35,-0.62 -0.35,-1.04 0,-0.37 0.09,-0.72 0.26,-1.05 0.17,-0.33 0.43,-0.61 0.78,-0.84 0.44,-0.29 0.92,-0.44 1.44,-0.44 0.24,0 0.47,0.04 0.68,0.1 0.21,0.06 0.41,0.16 0.59,0.29 0.15,-0.12 0.27,-0.18 0.36,-0.18 0.11,0 0.2,0.05 0.28,0.15 0.07,0.11 0.11,0.23 0.11,0.37 0,0.09 -0.01,0.24 -0.04,0.43l-0.05 0.35c-0.06,0.34 -0.14,0.58 -0.26,0.73 -0.12,0.14 -0.26,0.22 -0.42,0.22 -0.12,0 -0.22,-0.06 -0.3,-0.16 -0.08,-0.11 -0.12,-0.25 -0.12,-0.42zm3.8 4.61l-1.05 -4.85c-0.42,0 -0.67,-0.04 -0.75,-0.13 -0.08,-0.09 -0.12,-0.23 -0.12,-0.44 0,-0.2 0.1,-0.43 0.3,-0.67 0.11,-0.13 0.3,-0.19 0.58,-0.19l1.33 0c0.3,0 0.49,0.04 0.57,0.12 0.08,0.09 0.12,0.24 0.12,0.44 0,0.21 -0.07,0.4 -0.23,0.59 -0.15,0.19 -0.37,0.28 -0.65,0.28l0.71 3.29 1.72 -3.29c-0.42,0 -0.67,-0.04 -0.75,-0.13 -0.08,-0.09 -0.12,-0.23 -0.12,-0.44 0,-0.2 0.09,-0.43 0.29,-0.66 0.11,-0.14 0.31,-0.2 0.58,-0.2l1.4 0c0.28,0 0.46,0.04 0.54,0.12 0.08,0.09 0.12,0.24 0.12,0.44 0,0.21 -0.07,0.4 -0.23,0.59 -0.15,0.19 -0.37,0.28 -0.65,0.28l-3.39 6.48c0.42,0 0.67,0.03 0.74,0.11 0.09,0.1 0.14,0.25 0.14,0.46 0,0.2 -0.1,0.43 -0.31,0.67 -0.1,0.13 -0.29,0.19 -0.57,0.19l-2.41 0c-0.28,0 -0.46,-0.04 -0.54,-0.13 -0.08,-0.08 -0.12,-0.23 -0.12,-0.43 0,-0.21 0.1,-0.43 0.3,-0.68 0.11,-0.13 0.3,-0.19 0.58,-0.19l1.01 0 0.86 -1.63zm8.62 -4.61c-0.15,-0.15 -0.31,-0.26 -0.48,-0.33 -0.18,-0.08 -0.36,-0.11 -0.57,-0.11 -0.33,0 -0.61,0.06 -0.85,0.18 -0.23,0.13 -0.35,0.25 -0.35,0.38 0,0.08 0.04,0.16 0.12,0.24 0.1,0.1 0.35,0.19 0.74,0.26 0.6,0.12 1.04,0.24 1.31,0.37 0.28,0.13 0.5,0.33 0.67,0.61 0.16,0.28 0.25,0.59 0.25,0.93 0,0.69 -0.27,1.26 -0.8,1.7 -0.54,0.45 -1.16,0.68 -1.86,0.68 -0.3,0 -0.58,-0.04 -0.82,-0.11 -0.25,-0.07 -0.47,-0.17 -0.66,-0.31 -0.12,0.12 -0.24,0.19 -0.35,0.19 -0.14,0 -0.24,-0.06 -0.32,-0.16 -0.08,-0.11 -0.12,-0.23 -0.12,-0.38 0,-0.09 0.02,-0.23 0.05,-0.43l0.08 -0.48c0.05,-0.35 0.13,-0.6 0.25,-0.74 0.12,-0.15 0.26,-0.22 0.41,-0.22 0.13,0 0.22,0.05 0.29,0.14 0.07,0.1 0.11,0.27 0.12,0.5 0.13,0.19 0.3,0.33 0.51,0.42 0.21,0.09 0.46,0.14 0.75,0.14 0.51,0 0.91,-0.11 1.2,-0.34 0.14,-0.1 0.2,-0.22 0.2,-0.35 0,-0.18 -0.08,-0.33 -0.24,-0.43 -0.16,-0.1 -0.51,-0.2 -1.02,-0.28 -0.75,-0.12 -1.24,-0.31 -1.47,-0.58 -0.23,-0.27 -0.35,-0.62 -0.35,-1.04 0,-0.37 0.08,-0.72 0.26,-1.05 0.17,-0.33 0.43,-0.61 0.77,-0.84 0.45,-0.29 0.93,-0.44 1.44,-0.44 0.25,0 0.47,0.04 0.68,0.1 0.22,0.06 0.42,0.16 0.6,0.29 0.14,-0.12 0.26,-0.18 0.35,-0.18 0.11,0 0.2,0.05 0.28,0.15 0.08,0.11 0.12,0.23 0.12,0.37 0,0.09 -0.02,0.24 -0.04,0.43l-0.06 0.35c-0.05,0.34 -0.14,0.58 -0.26,0.73 -0.12,0.14 -0.26,0.22 -0.41,0.22 -0.13,0 -0.23,-0.06 -0.3,-0.16 -0.08,-0.11 -0.12,-0.25 -0.12,-0.42zm4.74 -0.24l-0.44 2.87c-0.02,0.15 -0.03,0.27 -0.03,0.36 0,0.13 0.04,0.23 0.12,0.3 0.14,0.12 0.36,0.18 0.67,0.18 0.53,0 1.05,-0.15 1.54,-0.46 0.2,-0.12 0.34,-0.18 0.44,-0.18 0.11,0 0.21,0.05 0.28,0.15 0.08,0.11 0.11,0.24 0.11,0.41 0,0.22 -0.06,0.41 -0.18,0.57 -0.18,0.24 -0.54,0.45 -1.07,0.65 -0.53,0.2 -0.99,0.3 -1.38,0.3 -0.31,0 -0.62,-0.08 -0.91,-0.23 -0.21,-0.11 -0.38,-0.28 -0.51,-0.51 -0.13,-0.23 -0.19,-0.5 -0.19,-0.8 0,-0.16 0.01,-0.31 0.03,-0.46l0.48 -3.15 -0.37 0c-0.23,0 -0.38,-0.05 -0.47,-0.15 -0.08,-0.1 -0.12,-0.24 -0.12,-0.42 0,-0.28 0.1,-0.52 0.29,-0.71 0.11,-0.1 0.28,-0.15 0.52,-0.15l0.38 0 0.19 -1.3c0.05,-0.34 0.14,-0.59 0.26,-0.74 0.12,-0.14 0.26,-0.22 0.41,-0.22 0.12,0 0.22,0.06 0.3,0.16 0.07,0.1 0.11,0.22 0.11,0.36 0,0.1 -0.01,0.24 -0.04,0.43l-0.2 1.31 1.92 0c0.23,0 0.39,0.05 0.47,0.15 0.08,0.1 0.12,0.24 0.12,0.42 0,0.27 -0.09,0.51 -0.28,0.7 -0.11,0.11 -0.29,0.16 -0.53,0.16l-1.92 0zm8.81 2.46l-4.24 0c0.05,0.37 0.19,0.67 0.42,0.91 0.24,0.23 0.59,0.34 1.06,0.34 0.39,0 0.92,-0.11 1.59,-0.34 0.28,-0.1 0.47,-0.15 0.58,-0.15 0.11,0 0.2,0.05 0.27,0.16 0.08,0.1 0.11,0.23 0.11,0.39 0,0.24 -0.07,0.45 -0.22,0.63 -0.16,0.19 -0.52,0.36 -1.09,0.51 -0.57,0.16 -1.08,0.24 -1.54,0.24 -0.72,0 -1.27,-0.26 -1.67,-0.76 -0.39,-0.5 -0.58,-1.14 -0.58,-1.92 0,-0.65 0.14,-1.3 0.42,-1.96 0.29,-0.65 0.69,-1.17 1.22,-1.56 0.52,-0.39 1.07,-0.59 1.62,-0.59 0.65,0 1.18,0.26 1.59,0.75 0.4,0.5 0.61,1.2 0.61,2.1 0,0.19 -0.02,0.41 -0.05,0.65l-0.1 0.6zm-0.93 -1.43c-0.09,-0.39 -0.25,-0.7 -0.47,-0.91 -0.23,-0.21 -0.52,-0.32 -0.87,-0.32 -0.35,0 -0.67,0.1 -0.96,0.3 -0.28,0.21 -0.53,0.52 -0.76,0.93l3.06 0zm3.47 -2.46l-0.04 0.43c0.21,-0.24 0.38,-0.41 0.53,-0.5 0.14,-0.09 0.29,-0.14 0.45,-0.14 0.31,0 0.57,0.21 0.79,0.61 0.2,-0.2 0.39,-0.35 0.58,-0.45 0.19,-0.11 0.38,-0.16 0.56,-0.16 0.34,0 0.6,0.14 0.8,0.4 0.19,0.26 0.29,0.61 0.29,1.04 0,0.13 -0.01,0.26 -0.04,0.41l-0.5 3.27c0.43,0 0.68,0.05 0.76,0.13 0.08,0.09 0.12,0.23 0.12,0.44 0,0.2 -0.1,0.43 -0.3,0.68 -0.11,0.12 -0.3,0.19 -0.58,0.19l-1.25 0 0.69 -4.54c0.01,-0.1 0.02,-0.19 0.02,-0.27 0,-0.1 -0.02,-0.17 -0.07,-0.23 -0.05,-0.05 -0.12,-0.08 -0.22,-0.08 -0.12,0 -0.23,0.06 -0.34,0.17 -0.15,0.16 -0.35,0.47 -0.59,0.92l-0.4 2.59c0.42,0 0.67,0.05 0.76,0.13 0.08,0.09 0.12,0.23 0.12,0.44 0,0.2 -0.1,0.43 -0.31,0.68 -0.1,0.12 -0.29,0.19 -0.57,0.19l-1.25 0 0.69 -4.54c0.01,-0.1 0.02,-0.19 0.02,-0.27 0,-0.09 -0.02,-0.17 -0.06,-0.22 -0.04,-0.06 -0.09,-0.09 -0.17,-0.09 -0.1,0 -0.19,0.04 -0.29,0.13 -0.12,0.12 -0.27,0.34 -0.44,0.65l-0.44 2.9c0.42,0 0.67,0.05 0.75,0.13 0.08,0.09 0.12,0.23 0.12,0.44 0,0.2 -0.1,0.43 -0.3,0.68 -0.11,0.12 -0.3,0.19 -0.58,0.19l-1.19 0c-0.32,0 -0.51,-0.05 -0.6,-0.13 -0.08,-0.09 -0.12,-0.23 -0.12,-0.44 0,-0.21 0.08,-0.4 0.23,-0.59 0.16,-0.18 0.37,-0.28 0.65,-0.28l0.53 -3.48c-0.42,0 -0.67,-0.04 -0.75,-0.13 -0.08,-0.09 -0.12,-0.23 -0.12,-0.44 0,-0.2 0.1,-0.43 0.3,-0.66 0.11,-0.14 0.3,-0.2 0.58,-0.2l1.18 0zm8.74 1.67c-0.15,-0.15 -0.31,-0.26 -0.48,-0.33 -0.17,-0.08 -0.36,-0.11 -0.57,-0.11 -0.33,0 -0.61,0.06 -0.85,0.18 -0.23,0.13 -0.34,0.25 -0.34,0.38 0,0.08 0.03,0.16 0.11,0.24 0.11,0.1 0.35,0.19 0.74,0.26 0.6,0.12 1.04,0.24 1.32,0.37 0.27,0.13 0.5,0.33 0.66,0.61 0.16,0.28 0.25,0.59 0.25,0.93 0,0.69 -0.27,1.26 -0.8,1.7 -0.54,0.45 -1.16,0.68 -1.86,0.68 -0.3,0 -0.57,-0.04 -0.82,-0.11 -0.25,-0.07 -0.47,-0.17 -0.65,-0.31 -0.13,0.12 -0.25,0.19 -0.36,0.19 -0.13,0 -0.24,-0.06 -0.32,-0.16 -0.08,-0.11 -0.12,-0.23 -0.12,-0.38 0,-0.09 0.02,-0.23 0.05,-0.43l0.08 -0.48c0.05,-0.35 0.13,-0.6 0.25,-0.74 0.12,-0.15 0.26,-0.22 0.41,-0.22 0.13,0 0.22,0.05 0.29,0.14 0.07,0.1 0.11,0.27 0.12,0.5 0.13,0.19 0.3,0.33 0.51,0.42 0.21,0.09 0.46,0.14 0.75,0.14 0.51,0 0.91,-0.11 1.2,-0.34 0.14,-0.1 0.2,-0.22 0.2,-0.35 0,-0.18 -0.08,-0.33 -0.24,-0.43 -0.16,-0.1 -0.5,-0.2 -1.02,-0.28 -0.75,-0.12 -1.24,-0.31 -1.47,-0.58 -0.23,-0.27 -0.35,-0.62 -0.35,-1.04 0,-0.37 0.09,-0.72 0.26,-1.05 0.17,-0.33 0.43,-0.61 0.77,-0.84 0.45,-0.29 0.93,-0.44 1.45,-0.44 0.24,0 0.46,0.04 0.68,0.1 0.21,0.06 0.41,0.16 0.59,0.29 0.14,-0.12 0.26,-0.18 0.36,-0.18 0.1,0 0.2,0.05 0.27,0.15 0.08,0.11 0.12,0.23 0.12,0.37 0,0.09 -0.01,0.24 -0.04,0.43l-0.06 0.35c-0.05,0.34 -0.14,0.58 -0.26,0.73 -0.12,0.14 -0.25,0.22 -0.41,0.22 -0.13,0 -0.23,-0.06 -0.3,-0.16 -0.08,-0.11 -0.12,-0.25 -0.12,-0.42z"/>
  </g>
 </g>
</svg>
