<?xml version="1.0" encoding="UTF-8"?>
<!DOCTYPE svg PUBLIC "-//W3C//DTD SVG 1.1//EN" "http://www.w3.org/Graphics/SVG/1.1/DTD/svg11.dtd">
<!-- Creator: CorelDRAW 2017 -->
<svg xmlns="http://www.w3.org/2000/svg" xml:space="preserve" width="1024px" height="1024px" version="1.1" style="shape-rendering:geometricPrecision; text-rendering:geometricPrecision; image-rendering:optimizeQuality; fill-rule:evenodd; clip-rule:evenodd"
viewBox="0 0 243.12 243.12"
 xmlns:xlink="http://www.w3.org/1999/xlink">
 <defs>
  <style type="text/css">
   <![CDATA[
    .str0 {stroke:#999999;stroke-width:0.68;stroke-miterlimit:22.9256}
    .str1 {stroke:white;stroke-width:0.68;stroke-miterlimit:22.9256}
    .fil0 {fill:#FA0A0A}
    .fil1 {fill:white;fill-rule:nonzero}
   ]]>
  </style>
 </defs>
 <g id="Слой_x0020_1">
  <metadata id="CorelCorpID_0Corel-Layer"/>
  <g id="_1855383905968">
   <path class="fil0 str0" d="M29.4 0.34l184.32 0c15.98,0 29.06,13.53 29.06,30.07l0 182.3c0,16.54 -13.08,30.07 -29.06,30.07l-184.32 0c-15.98,0 -29.06,-13.53 -29.06,-30.07l0 -182.3c0,-16.54 13.08,-30.07 29.06,-30.07z"/>
   <g>
    <path class="fil1 str1" d="M195.95 179.32c0,0 3.83,3.11 7.02,3.46 0,0 3.08,0.43 5.82,5.55 2.74,5.12 3.04,7.24 4.51,10.82 1.47,3.59 2.9,13.87 1.07,14.94 0.49,1.52 -0.24,7.29 -1.04,6.9 -0.61,-0.91 -0.49,-5.2 -0.73,-5.74 -0.29,1.5 0,6.85 -0.85,6.82 -0.85,-0.02 -1.22,-3.83 -1.22,-3.83 0,0 -1.18,1.25 -1.45,-0.3 -0.27,-1.55 -0.77,-2.81 -0.77,-2.81 0,0 -1.17,1.24 -1.55,-0.55 -0.38,-1.79 -1.1,-2.95 -1.1,-2.95 0,0 -1.88,-0.58 -2.22,-3.11 -0.76,0.81 -2.34,-0.75 -2.59,-2.97 -0.68,1.46 -1.6,0 -2.24,-2.25 -0.23,0.36 -1.45,0.99 -1.52,-0.32 -0.05,-1.32 -0.16,-1.82 -0.16,-1.82 0,0 -1.85,-1.44 -1.9,-2.31 -1.41,-1.56 -2.78,-3.41 -2.92,-3.63 -0.15,-0.21 -0.89,-0.52 -1.22,-1.18 -0.5,-0.74 -1.54,-0.62 -2.07,-1.41 -0.53,-0.78 -1.64,-1.46 -2.29,-2.34 -0.66,-0.88 -2.7,-1.27 -3.19,-2.09 -2.27,0.94 -6.24,4.09 -7.02,4.79 -0.77,0.69 -8.21,10.49 -11.61,14.85 -3.41,4.35 -6.27,8.18 -6.49,6.46 -0.21,-1.72 1.26,-2.79 2.08,-3.78 0.82,-0.98 1.74,-1.9 1.99,-3.19 0.26,-1.29 1.41,-3.36 2.47,-4.51 1.06,-1.16 2.47,-3.81 3.27,-5.17 0.81,-1.35 0.21,-2.15 0.38,-2.86 0.18,-0.71 -0.78,-1.95 0.02,-2.53 0.26,-0.39 -0.37,-0.9 -1.4,-0.67 -1.03,0.23 -1.38,-0.03 -1.78,-0.97 -1.57,0.05 -2.3,-0.33 -2.65,-0.85 -2.32,0.33 -9.59,1.86 -10.77,0.72 -1.91,0.16 -9.15,1.02 -8.76,-0.43 0.38,-1.45 17.22,-3.46 17.22,-3.46l13.34 -3.23 1.81 -1.19c0,0 -1.01,-1.59 0.73,-3.31 -0.66,-1.85 -3.91,-7.9 -3.28,-9.52 -1.88,-2.96 -3.11,-5.05 -3.11,-5.05 0,0 -1.35,-1.21 -1.34,-1.81 -2.24,-0.69 -2.45,-0.99 -2.45,-0.99l0.84 -0.61 -2.21 -1.24 0.66 -0.36c0,0 -1.93,-1.44 -1.89,-1.92 0.03,-0.47 -0.68,-0.73 -1.2,-1.07 -0.52,-0.33 -1.25,-1.15 -1.49,-1.5 0,0 -2.96,-1.15 -2.6,-1.41 0.36,-0.26 0.27,-0.65 0.27,-0.65 0,0 -3.83,-1.03 -3.21,-1.42 0.63,-0.39 0.75,-0.73 0.75,-0.73 0,0 -4.21,-0.63 -3.7,-1 0.52,-0.38 8.52,0.59 7.44,0.22 -1.08,-0.38 -6.94,-1.68 -6.03,-2.09 0.91,-0.4 14.27,2.89 12.84,2.18 -1.42,-0.71 -7.4,-2.64 -5.85,-2.61 1.57,0.03 16.11,5.25 18.87,6.01 2.77,0.77 6.35,2.82 7.49,4.52 1.14,1.69 1.54,3.15 1.21,3.9 -0.32,0.76 -0.67,4.63 0.05,7.28 0.72,2.64 2.49,3.95 3.05,3.73 0.57,-0.22 6.76,-1.75 8.47,1.22 1.3,0.35 1.86,1.36 1.33,2.32 -0.35,-0.77 -0.93,-1.19 -1.39,-0.47 -0.56,0.41 -3.83,3.22 -3.74,3.52z"/>
    <path class="fil1 str1" d="M191.35 83.86c0,0 7.41,6.02 13.57,6.69 0,0 5.96,0.84 11.26,10.75 5.31,9.9 5.88,13.99 8.73,20.93 2.84,6.93 5.6,26.82 2.07,28.89 0.95,2.94 -0.46,14.1 -2,13.34 -1.19,-1.76 -0.95,-10.06 -1.42,-11.1 -0.56,2.91 0.01,13.26 -1.64,13.2 -1.64,-0.06 -2.36,-7.41 -2.36,-7.41 0,0 -2.28,2.4 -2.81,-0.59 -0.52,-3 -1.48,-5.43 -1.48,-5.43 0,0 -2.27,2.4 -3,-1.06 -0.74,-3.47 -2.14,-5.71 -2.14,-5.71 0,0 -3.62,-1.13 -4.28,-6.02 -1.47,1.57 -4.54,-1.46 -5.02,-5.74 -1.3,2.82 -3.09,0 -4.32,-4.36 -0.44,0.69 -2.82,1.92 -2.94,-0.63 -0.1,-2.54 -0.31,-3.52 -0.31,-3.52 0,0 -3.58,-2.77 -3.69,-4.45 -2.72,-3.03 -5.36,-6.6 -5.65,-7.02 -0.28,-0.42 -1.71,-1.01 -2.35,-2.3 -0.96,-1.43 -2.98,-1.2 -4.01,-2.72 -1.01,-1.51 -3.17,-2.82 -4.43,-4.53 -1.26,-1.71 -5.21,-2.46 -6.15,-4.03 -4.39,1.81 -12.08,7.9 -13.58,9.25 -1.5,1.34 -15.87,20.3 -22.46,28.71 -6.58,8.41 -12.12,15.82 -12.54,12.49 -0.41,-3.32 2.44,-5.39 4.02,-7.29 1.58,-1.9 3.36,-3.69 3.85,-6.19 0.5,-2.48 2.73,-6.48 4.78,-8.72 2.03,-2.24 4.78,-7.35 6.32,-9.98 1.56,-2.63 0.4,-4.17 0.74,-5.53 0.33,-1.38 -1.52,-3.78 0.02,-4.9 0.52,-0.76 -0.71,-1.74 -2.7,-1.3 -1.99,0.45 -2.68,-0.05 -3.44,-1.87 -3.05,0.08 -4.45,-0.65 -5.13,-1.66 -4.49,0.65 -18.54,3.6 -20.83,1.39 -3.69,0.31 -17.69,1.97 -16.94,-0.82 0.75,-2.8 33.3,-6.69 33.3,-6.69l25.8 -6.25 3.5 -2.29c0,0 -1.96,-3.08 1.4,-6.41 -1.26,-3.58 -7.56,-15.28 -6.34,-18.41 -3.64,-5.73 -6.01,-9.76 -6.01,-9.76 0,0 -2.62,-2.36 -2.59,-3.5 -4.35,-1.35 -4.74,-1.93 -4.74,-1.93l1.61 -1.18 -4.26 -2.41 1.27 -0.67c0,0 -3.72,-2.8 -3.66,-3.72 0.07,-0.92 -1.3,-1.43 -2.31,-2.07 -1.01,-0.65 -2.43,-2.24 -2.88,-2.91 0,0 -5.73,-2.22 -5.04,-2.72 0.69,-0.51 0.53,-1.26 0.53,-1.26 0,0 -7.42,-1.99 -6.2,-2.75 1.2,-0.75 1.44,-1.42 1.44,-1.42 0,0 -8.15,-1.21 -7.15,-1.94 1,-0.72 16.47,1.16 14.38,0.43 -2.09,-0.72 -13.42,-3.25 -11.66,-4.03 1.77,-0.79 27.6,5.59 24.84,4.21 -2.76,-1.37 -14.33,-5.1 -11.31,-5.04 3.02,0.06 31.13,10.15 36.48,11.62 5.36,1.5 12.28,5.47 14.49,8.75 2.21,3.28 2.97,6.1 2.35,7.55 -0.63,1.46 -1.3,8.95 0.09,14.07 1.39,5.12 4.81,7.64 5.9,7.22 1.09,-0.42 13.08,-3.37 16.37,2.36 2.52,0.68 3.61,2.64 2.58,4.5 -0.67,-1.5 -1.79,-2.31 -2.68,-0.92 -1.08,0.79 -7.42,6.23 -7.24,6.81z"/>
    <path class="fil1 str1" d="M79.96 138.58c0,0 5.25,4.26 9.61,4.74 0,0 4.22,0.59 7.98,7.61 3.75,7.01 4.16,9.91 6.18,14.82 2.01,4.91 3.96,18.99 1.46,20.46 0.68,2.08 -0.33,9.98 -1.42,9.44 -0.84,-1.24 -0.67,-7.12 -1,-7.85 -0.4,2.05 0,9.38 -1.16,9.34 -1.16,-0.04 -1.67,-5.25 -1.67,-5.25 0,0 -1.62,1.7 -1.99,-0.42 -0.37,-2.12 -1.05,-3.84 -1.05,-3.84 0,0 -1.61,1.7 -2.13,-0.75 -0.52,-2.46 -1.51,-4.04 -1.51,-4.04 0,0 -2.56,-0.8 -3.03,-4.27 -1.04,1.12 -3.21,-1.03 -3.55,-4.06 -0.93,2 -2.2,0 -3.06,-3.09 -0.32,0.49 -2,1.36 -2.08,-0.44 -0.08,-1.8 -0.22,-2.49 -0.22,-2.49 0,0 -2.54,-1.97 -2.62,-3.16 -1.93,-2.14 -3.8,-4.67 -4,-4.97 -0.2,-0.3 -1.21,-0.71 -1.66,-1.62 -0.68,-1.02 -2.12,-0.86 -2.84,-1.93 -0.72,-1.07 -2.24,-2 -3.14,-3.21 -0.89,-1.21 -3.69,-1.74 -4.36,-2.85 -3.11,1.28 -8.55,5.59 -9.61,6.55 -1.06,0.94 -11.24,14.37 -15.9,20.33 -4.66,5.96 -8.59,11.2 -8.88,8.85 -0.29,-2.36 1.72,-3.83 2.84,-5.17 1.12,-1.35 2.38,-2.61 2.73,-4.38 0.35,-1.76 1.93,-4.59 3.38,-6.17 1.44,-1.59 3.39,-5.21 4.48,-7.07 1.1,-1.87 0.28,-2.96 0.52,-3.92 0.24,-0.98 -1.08,-2.68 0.01,-3.47 0.37,-0.54 -0.5,-1.23 -1.9,-0.92 -1.41,0.32 -1.9,-0.04 -2.44,-1.33 -2.16,0.06 -3.15,-0.45 -3.63,-1.17 -3.19,0.46 -13.13,2.55 -14.75,0.98 -2.62,0.22 -12.53,1.4 -12,-0.58 0.53,-1.98 23.58,-4.73 23.58,-4.73l18.27 -4.43 2.48 -1.62c0,0 -1.39,-2.18 0.99,-4.54 -0.89,-2.54 -5.35,-10.81 -4.49,-13.03 -2.58,-4.06 -4.26,-6.92 -4.26,-6.92 0,0 -1.85,-1.67 -1.83,-2.48 -3.08,-0.95 -3.36,-1.36 -3.36,-1.36l1.15 -0.83 -3.02 -1.71 0.9 -0.48c0,0 -2.64,-1.98 -2.59,-2.63 0.04,-0.65 -0.92,-1.01 -1.64,-1.47 -0.71,-0.46 -1.72,-1.58 -2.04,-2.06 0,0 -4.05,-1.57 -3.56,-1.92 0.48,-0.36 0.37,-0.9 0.37,-0.9 0,0 -5.25,-1.41 -4.39,-1.94 0.85,-0.53 1.02,-1.01 1.02,-1.01 0,0 -5.77,-0.85 -5.07,-1.37 0.71,-0.51 11.67,0.82 10.19,0.31 -1.49,-0.52 -9.5,-2.31 -8.26,-2.86 1.25,-0.56 19.54,3.95 17.59,2.98 -1.95,-0.97 -10.14,-3.61 -8.01,-3.57 2.14,0.04 22.05,7.19 25.83,8.23 3.8,1.06 8.7,3.87 10.27,6.2 1.56,2.31 2.1,4.31 1.65,5.34 -0.44,1.03 -0.91,6.34 0.07,9.96 0.98,3.63 3.41,5.42 4.18,5.12 0.77,-0.3 9.26,-2.39 11.59,1.67 1.78,0.47 2.56,1.86 1.83,3.18 -0.48,-1.06 -1.27,-1.63 -1.9,-0.65 -0.77,0.56 -5.26,4.42 -5.13,4.82z"/>
   </g>
  </g>
 </g>
</svg>
