<?xml version="1.0" encoding="UTF-8"?>
<!DOCTYPE svg PUBLIC "-//W3C//DTD SVG 1.1//EN" "http://www.w3.org/Graphics/SVG/1.1/DTD/svg11.dtd">
<!-- Creator: CorelDRAW 2017 -->
<svg xmlns="http://www.w3.org/2000/svg" xml:space="preserve" width="240px" height="60px" version="1.1" style="shape-rendering:geometricPrecision; text-rendering:geometricPrecision; image-rendering:optimizeQuality; fill-rule:evenodd; clip-rule:evenodd"
viewBox="0 0 521.75 130.9"
 xmlns:xlink="http://www.w3.org/1999/xlink">
 <defs>
  <style type="text/css">
   <![CDATA[
    .str2 {stroke:gray;stroke-width:0.4;stroke-miterlimit:22.9256}
    .str0 {stroke:#999999;stroke-width:0.4;stroke-miterlimit:22.9256}
    .str1 {stroke:white;stroke-width:0.4;stroke-miterlimit:22.9256}
    .fil3 {fill:none;fill-rule:nonzero}
    .fil0 {fill:#FA0A0A}
    .fil2 {fill:gray;fill-rule:nonzero}
    .fil4 {fill:gray;fill-rule:nonzero}
    .fil1 {fill:white;fill-rule:nonzero}
   ]]>
  </style>
 </defs>
 <g id="Слой_x0020_1">
  <metadata id="CorelCorpID_0Corel-Layer"/>
  <g id="_1972801917056">
   <path class="fil0 str0" d="M16.38 0.2l102.62 0c8.89,0 16.17,7.28 16.17,16.18l0 98.1c0,8.89 -7.28,16.17 -16.17,16.17l-102.62 0c-8.9,0 -16.18,-7.28 -16.18,-16.17l0 -98.1c0,-8.9 7.28,-16.18 16.18,-16.18z"/>
   <g>
    <path class="fil1 str1" d="M109.1 96.51c0,0 2.13,1.67 3.91,1.86 0,0 1.71,0.23 3.24,2.99 1.53,2.75 1.69,3.89 2.51,5.82 0.82,1.93 1.61,7.46 0.6,8.04 0.27,0.82 -0.14,3.92 -0.58,3.71 -0.34,-0.49 -0.27,-2.8 -0.41,-3.09 -0.16,0.81 0,3.69 -0.47,3.67 -0.47,-0.01 -0.68,-2.06 -0.68,-2.06 0,0 -0.66,0.67 -0.81,-0.16 -0.15,-0.83 -0.42,-1.51 -0.42,-1.51 0,0 -0.66,0.67 -0.87,-0.3 -0.21,-0.96 -0.61,-1.59 -0.61,-1.59 0,0 -1.05,-0.31 -1.24,-1.67 -0.42,0.44 -1.3,-0.41 -1.44,-1.6 -0.38,0.79 -0.89,0 -1.24,-1.21 -0.13,0.19 -0.82,0.53 -0.85,-0.17 -0.03,-0.71 -0.09,-0.98 -0.09,-0.98 0,0 -1.03,-0.77 -1.06,-1.24 -0.79,-0.84 -1.55,-1.84 -1.63,-1.96 -0.08,-0.11 -0.49,-0.28 -0.67,-0.63 -0.28,-0.4 -0.86,-0.34 -1.16,-0.76 -0.29,-0.42 -0.91,-0.79 -1.27,-1.26 -0.37,-0.48 -1.5,-0.69 -1.78,-1.12 -1.26,0.5 -3.47,2.2 -3.91,2.57 -0.43,0.37 -4.57,5.65 -6.46,7.99 -1.9,2.34 -3.49,4.4 -3.61,3.48 -0.12,-0.93 0.7,-1.5 1.15,-2.03 0.46,-0.53 0.97,-1.03 1.11,-1.72 0.15,-0.69 0.79,-1.81 1.38,-2.43 0.59,-0.62 1.37,-2.05 1.82,-2.78 0.45,-0.73 0.11,-1.16 0.21,-1.54 0.1,-0.38 -0.44,-1.05 0.01,-1.36 0.15,-0.21 -0.21,-0.48 -0.78,-0.36 -0.57,0.13 -0.77,-0.01 -0.99,-0.52 -0.88,0.02 -1.28,-0.18 -1.48,-0.46 -1.29,0.18 -5.33,1 -5.99,0.39 -1.07,0.08 -5.09,0.55 -4.88,-0.23 0.22,-0.78 9.59,-1.86 9.59,-1.86l7.43 -1.75 1 -0.63c0,0 -0.56,-0.86 0.41,-1.79 -0.37,-0.99 -2.18,-4.24 -1.83,-5.12 -1.05,-1.59 -1.73,-2.71 -1.73,-2.71 0,0 -0.75,-0.66 -0.74,-0.98 -1.25,-0.37 -1.37,-0.53 -1.37,-0.53l0.47 -0.33 -1.23 -0.67 0.37 -0.19c0,0 -1.08,-0.78 -1.06,-1.03 0.02,-0.26 -0.37,-0.4 -0.66,-0.58 -0.29,-0.18 -0.7,-0.62 -0.83,-0.81 0,0 -1.65,-0.61 -1.45,-0.75 0.2,-0.14 0.15,-0.36 0.15,-0.36 0,0 -2.13,-0.55 -1.79,-0.76 0.35,-0.21 0.42,-0.39 0.42,-0.39 0,0 -2.35,-0.34 -2.06,-0.54 0.29,-0.21 4.74,0.32 4.14,0.12 -0.6,-0.21 -3.86,-0.91 -3.35,-1.13 0.5,-0.21 7.94,1.56 7.15,1.17 -0.8,-0.38 -4.13,-1.41 -3.26,-1.4 0.87,0.02 8.96,2.82 10.5,3.23 1.55,0.42 3.54,1.53 4.17,2.44 0.64,0.91 0.86,1.69 0.68,2.1 -0.18,0.4 -0.38,2.49 0.03,3.91 0.39,1.43 1.38,2.13 1.69,2.01 0.32,-0.12 3.77,-0.94 4.72,0.66 0.72,0.18 1.04,0.73 0.74,1.25 -0.2,-0.42 -0.52,-0.65 -0.77,-0.26 -0.31,0.22 -2.14,1.74 -2.09,1.9z"/>
    <path class="fil1 str1" d="M106.54 45.14c0,0 4.13,3.24 7.56,3.6 0,0 3.31,0.45 6.27,5.78 2.95,5.33 3.27,7.53 4.86,11.26 1.58,3.74 3.12,14.44 1.15,15.55 0.53,1.59 -0.26,7.59 -1.12,7.18 -0.66,-0.94 -0.52,-5.41 -0.78,-5.97 -0.32,1.56 0,7.13 -0.92,7.1 -0.91,-0.03 -1.31,-3.99 -1.31,-3.99 0,0 -1.27,1.29 -1.57,-0.32 -0.29,-1.61 -0.82,-2.91 -0.82,-2.91 0,0 -1.26,1.29 -1.67,-0.58 -0.41,-1.86 -1.19,-3.07 -1.19,-3.07 0,0 -2.02,-0.6 -2.39,-3.24 -0.81,0.85 -2.52,-0.78 -2.79,-3.09 -0.73,1.52 -1.72,0 -2.4,-2.34 -0.25,0.37 -1.57,1.03 -1.64,-0.34 -0.06,-1.37 -0.17,-1.9 -0.17,-1.9 0,0 -2,-1.49 -2.06,-2.39 -1.52,-1.63 -2.99,-3.55 -3.14,-3.78 -0.16,-0.23 -0.96,-0.54 -1.31,-1.24 -0.54,-0.76 -1.67,-0.64 -2.23,-1.46 -0.57,-0.81 -1.77,-1.52 -2.47,-2.44 -0.71,-0.92 -2.9,-1.32 -3.43,-2.17 -2.44,0.98 -6.72,4.26 -7.56,4.98 -0.83,0.72 -8.83,10.92 -12.5,15.45 -3.66,4.53 -6.75,8.51 -6.98,6.72 -0.23,-1.79 1.35,-2.9 2.23,-3.92 0.88,-1.03 1.88,-1.99 2.15,-3.33 0.28,-1.34 1.52,-3.49 2.66,-4.69 1.13,-1.21 2.66,-3.96 3.52,-5.38 0.86,-1.41 0.22,-2.24 0.41,-2.97 0.18,-0.74 -0.85,-2.04 0.01,-2.64 0.29,-0.41 -0.39,-0.93 -1.5,-0.69 -1.11,0.24 -1.49,-0.03 -1.92,-1.01 -1.69,0.04 -2.47,-0.35 -2.85,-0.89 -2.5,0.34 -10.32,1.93 -11.6,0.74 -2.05,0.17 -9.85,1.06 -9.43,-0.44 0.42,-1.51 18.54,-3.6 18.54,-3.6l14.36 -3.36 1.95 -1.24c0,0 -1.09,-1.65 0.78,-3.44 -0.7,-1.93 -4.21,-8.22 -3.53,-9.91 -2.03,-3.09 -3.35,-5.25 -3.35,-5.25 0,0 -1.45,-1.27 -1.44,-1.89 -2.42,-0.72 -2.64,-1.04 -2.64,-1.04l0.9 -0.63 -2.37 -1.29 0.7 -0.37c0,0 -2.07,-1.5 -2.03,-2 0.03,-0.5 -0.73,-0.77 -1.29,-1.11 -0.56,-0.35 -1.35,-1.21 -1.6,-1.57 0,0 -3.19,-1.19 -2.81,-1.46 0.39,-0.27 0.3,-0.68 0.3,-0.68 0,0 -4.13,-1.07 -3.46,-1.48 0.68,-0.4 0.81,-0.76 0.81,-0.76 0,0 -4.54,-0.66 -3.98,-1.05 0.55,-0.39 9.17,0.63 8,0.24 -1.16,-0.4 -7.47,-1.75 -6.49,-2.18 0.98,-0.42 15.37,3.01 13.83,2.27 -1.54,-0.74 -7.98,-2.74 -6.3,-2.71 1.69,0.03 17.34,5.46 20.31,6.25 2.99,0.81 6.84,2.95 8.07,4.71 1.23,1.76 1.65,3.28 1.31,4.06 -0.35,0.79 -0.73,4.82 0.05,7.57 0.77,2.76 2.68,4.12 3.28,3.89 0.61,-0.23 7.28,-1.82 9.12,1.27 1.4,0.36 2.01,1.42 1.43,2.42 -0.37,-0.81 -0.99,-1.24 -1.49,-0.49 -0.6,0.42 -4.13,3.35 -4.03,3.66z"/>
    <path class="fil1 str1" d="M44.53 74.59c0,0 2.92,2.29 5.35,2.55 0,0 2.34,0.31 4.44,4.09 2.09,3.77 2.32,5.33 3.44,7.97 1.12,2.65 2.21,10.23 0.81,11.01 0.38,1.12 -0.18,5.38 -0.79,5.09 -0.46,-0.67 -0.37,-3.84 -0.56,-4.23 -0.22,1.1 0.01,5.05 -0.64,5.03 -0.65,-0.03 -0.93,-2.83 -0.93,-2.83 0,0 -0.9,0.92 -1.11,-0.22 -0.21,-1.14 -0.58,-2.07 -0.58,-2.07 0,0 -0.9,0.91 -1.19,-0.41 -0.29,-1.32 -0.84,-2.17 -0.84,-2.17 0,0 -1.43,-0.43 -1.69,-2.29 -0.58,0.59 -1.79,-0.56 -1.97,-2.19 -0.52,1.07 -1.23,0 -1.71,-1.66 -0.17,0.26 -1.11,0.73 -1.16,-0.24 -0.04,-0.97 -0.12,-1.34 -0.12,-1.34 0,0 -1.41,-1.06 -1.45,-1.7 -1.08,-1.15 -2.12,-2.51 -2.23,-2.67 -0.11,-0.16 -0.68,-0.39 -0.93,-0.88 -0.38,-0.54 -1.18,-0.46 -1.58,-1.03 -0.4,-0.58 -1.25,-1.08 -1.75,-1.73 -0.49,-0.65 -2.05,-0.94 -2.42,-1.54 -1.73,0.69 -4.76,3.01 -5.35,3.53 -0.6,0.51 -6.26,7.73 -8.86,10.94 -2.59,3.2 -4.78,6.03 -4.94,4.76 -0.16,-1.27 0.96,-2.06 1.58,-2.78 0.62,-0.73 1.33,-1.41 1.52,-2.36 0.2,-0.95 1.07,-2.47 1.88,-3.32 0.81,-0.85 1.89,-2.8 2.5,-3.81 0.61,-1 0.15,-1.58 0.29,-2.1 0.13,-0.53 -0.6,-1.44 0,-1.87 0.21,-0.29 -0.27,-0.66 -1.06,-0.49 -0.78,0.17 -1.05,-0.02 -1.36,-0.72 -1.2,0.03 -1.75,-0.25 -2.02,-0.63 -1.77,0.25 -7.3,1.37 -8.21,0.53 -1.45,0.12 -6.97,0.75 -6.68,-0.31 0.3,-1.07 13.13,-2.55 13.13,-2.55l10.17 -2.38 1.38 -0.88c0,0 -0.77,-1.17 0.56,-2.44 -0.5,-1.36 -2.99,-5.82 -2.51,-7.01 -1.43,-2.19 -2.37,-3.72 -2.37,-3.72 0,0 -1.03,-0.9 -1.02,-1.34 -1.71,-0.51 -1.87,-0.73 -1.87,-0.73l0.64 -0.45 -1.68 -0.92 0.5 -0.26c0,0 -1.47,-1.06 -1.44,-1.41 0.02,-0.35 -0.51,-0.54 -0.91,-0.79 -0.4,-0.25 -0.96,-0.85 -1.14,-1.11 0,0 -2.26,-0.84 -1.98,-1.04 0.27,-0.19 0.2,-0.48 0.2,-0.48 0,0 -2.92,-0.75 -2.44,-1.04 0.48,-0.29 0.57,-0.54 0.57,-0.54 0,0 -3.21,-0.47 -2.82,-0.74 0.39,-0.28 6.49,0.44 5.67,0.16 -0.83,-0.28 -5.29,-1.24 -4.6,-1.54 0.7,-0.29 10.88,2.13 9.79,1.61 -1.08,-0.52 -5.64,-1.94 -4.46,-1.92 1.2,0.02 12.28,3.87 14.39,4.43 2.11,0.57 4.84,2.08 5.71,3.33 0.87,1.25 1.17,2.32 0.92,2.88 -0.24,0.55 -0.51,3.41 0.04,5.36 0.55,1.95 1.9,2.91 2.33,2.75 0.43,-0.16 5.15,-1.29 6.45,0.9 0.99,0.26 1.42,1 1.02,1.71 -0.27,-0.57 -0.71,-0.88 -1.06,-0.35 -0.43,0.3 -2.92,2.38 -2.85,2.6z"/>
   </g>
  </g>
  <path class="fil2" d="M151.47 84.11l0 -15.77 3.09 0c2.94,5.42 5.99,9.51 9.18,12.24 3.21,2.75 6.32,4.13 9.37,4.13 1.95,0 3.71,-0.66 5.26,-1.99 1.54,-1.32 2.31,-2.82 2.31,-4.5 0,-2.22 -0.57,-3.74 -1.74,-4.58 -4.35,-3 -8.52,-5.32 -12.52,-6.92 -10.58,-4.08 -15.87,-9.92 -15.87,-17.49 0,-4.5 1.65,-8.26 4.96,-11.25 3.31,-3.02 7.76,-4.52 13.39,-4.52 2.84,0 5.49,0.31 7.96,0.94 2.46,0.62 5.19,1.52 8.19,2.69l0.57 14.25 -2.82 0c-3.11,-4.82 -6.2,-8.44 -9.25,-10.88 -3.07,-2.44 -6.07,-3.67 -9.04,-3.67 -1.85,0 -3.37,0.63 -4.59,1.89 -1.2,1.27 -1.81,2.66 -1.81,4.18 0,1.95 0.75,3.51 2.24,4.66 1.5,1.13 4.67,2.84 9.48,5.08 4.8,2.25 9.02,4.41 12.62,6.48 2.26,1.26 4.08,3 5.41,5.24 1.36,2.24 2.03,4.68 2.03,7.33 0,3.08 -0.84,5.93 -2.56,8.52 -1.71,2.61 -4.07,4.68 -7.11,6.2 -3.01,1.52 -6.42,2.28 -10.18,2.28 -5.33,0 -11.54,-1.52 -18.57,-4.54zm2.11 -10.47l0 7.52c1.93,0.88 5.14,1.95 9.61,3.18 -2.4,-1.73 -4.18,-3.27 -5.32,-4.62 -1.16,-1.38 -2.6,-3.39 -4.29,-6.08zm28.3 7.64c1.04,-1.01 1.81,-1.91 2.3,-2.73 0.49,-0.82 0.75,-1.93 0.75,-3.35 0,-4.29 -2.99,-7.7 -8.98,-10.22 -5.4,-2.32 -9.67,-4.38 -12.78,-6.16 -3.11,-1.79 -5.38,-3.62 -6.75,-5.53 -1.4,-1.91 -2.09,-4.29 -2.09,-7.12 0,-1.73 0.47,-3.66 1.4,-5.77 -1.01,1.27 -1.8,2.55 -2.41,3.82 -0.59,1.25 -0.88,2.81 -0.88,4.66 0,3.8 1.3,6.88 3.92,9.26 2.62,2.36 6.51,4.74 11.65,7.19 5.16,2.42 8.89,4.39 11.15,5.93 2.26,1.56 3.41,3.69 3.41,6.4 0,1.01 -0.24,2.22 -0.69,3.62zm-0.46 -35.23l-0.51 -6.92c-2.54,-1.09 -4.53,-1.83 -5.94,-2.22 -1.44,-0.41 -3.51,-0.62 -6.25,-0.62 2.9,1.05 5.18,2.26 6.9,3.66 1.71,1.37 3.64,3.41 5.8,6.1z"/>
  <path id="1" class="fil2" d="M221.89 87.05l-26.68 0 0 -3.33 0.87 0c2.1,0 3.62,-0.37 4.52,-1.09 0.91,-0.72 1.42,-1.58 1.58,-2.58 0.16,-1.01 0.24,-2.55 0.24,-4.62l0 -55.15c0,-3 -0.5,-5.4 -1.48,-7.19 -0.99,-1.78 -2.9,-3.1 -5.73,-3.98l0 -2.36 18.31 -6.43 2.25 0 0 62.05c9.06,-9.06 13.59,-15.42 13.59,-19.08 0,-1.43 -0.54,-2.62 -1.6,-3.59 -1.06,-0.96 -2.7,-1.58 -4.94,-1.8l0 -3.45 24.57 0 0 3.45c-0.37,0.08 -0.92,0.22 -1.61,0.41 -0.69,0.2 -1.44,0.45 -2.23,0.76 -0.78,0.3 -1.61,0.73 -2.5,1.31 -0.88,0.59 -1.87,1.44 -2.93,2.57 -1.93,2.07 -2.98,3.22 -3.13,3.42l-3.74 5.06 9.57 19.11c2,3.9 3.82,6.88 5.45,8.97 1.64,2.1 3.43,3.49 5.4,4.21l0 3.33 -24.56 0 0 -3.33c2.6,-0.37 3.9,-1.29 3.9,-2.83 0,-0.47 -0.14,-0.99 -0.39,-1.52 -0.28,-0.56 -0.81,-1.56 -1.62,-3.04l-7.68 -14.93 -5.55 5.55 0 11.6c0,3.32 2.05,5.05 6.12,5.17l0 3.33zm16.54 -49.28l-10.12 0c1.95,1.48 2.94,3.29 2.94,5.42 0,0.84 -0.24,1.85 -0.69,3.06 3.07,-4.21 5.69,-7.04 7.87,-8.48zm-4.6 35.25l-8.24 -16.07 -2.77 2.83 8.43 16.9c0.27,0.49 0.51,0.92 0.74,1.33 0.22,0.39 0.44,0.85 0.63,1.32 0.18,0.49 0.28,0.96 0.28,1.44 0,0.88 -0.55,1.86 -1.65,2.95 1.61,-0.04 2.83,-0.43 3.68,-1.21 0.85,-0.76 1.26,-1.77 1.26,-3 0,-1.21 -0.79,-3.36 -2.36,-6.49zm-25.62 4.15l0 -55.93c0,-3.49 -0.2,-6.13 -0.61,-7.96 -0.4,-1.83 -1.32,-3.18 -2.78,-4.09 -1.46,-0.9 -3.8,-1.27 -7.01,-1.11 2.56,1.17 4.29,2.65 5.18,4.46 0.88,1.81 1.32,4.27 1.32,7.39l0 56.77c0,1.95 -0.16,3.45 -0.46,4.48 -0.31,1 -1.02,1.99 -2.12,2.91 4.31,-0.12 6.48,-2.44 6.48,-6.92z"/>
  <path id="2" class="fil2" d="M291.74 34.45l19.85 0 0 3.08c-1.87,0.84 -3.47,1.86 -4.77,3.1 -1.31,1.23 -2.42,2.6 -3.3,4.14 -0.91,1.54 -1.89,3.56 -2.94,6.02 -1.06,2.46 -2.1,5.11 -3.15,7.9l-15.5 41.15c-4.15,11.19 -9.7,16.77 -16.62,16.77 -2.26,0 -4.21,-0.65 -5.85,-1.95 -1.63,-1.31 -2.46,-2.87 -2.46,-4.72 0,-1.6 0.65,-2.93 1.93,-4.02 1.3,-1.09 2.82,-1.63 4.59,-1.63 0.85,0 1.77,0.23 2.8,0.68 1.02,0.43 2.03,0.91 2.99,1.36 0.99,0.47 1.89,0.7 2.7,0.72 2.54,-0.02 4.82,-2.78 6.85,-8.3l3.07 -8.64 -17.38 -42.11c-0.46,-1.26 -0.97,-2.53 -1.52,-3.82 -0.57,-1.32 -1.16,-2.45 -1.81,-3.41 -0.67,-0.95 -1.5,-1.73 -2.48,-2.3 -1.01,-0.6 -2.23,-0.9 -3.71,-0.94l0 -3.08 30.02 0 0 3.08c-2.39,0.16 -4.2,0.53 -5.46,1.1 -1.26,0.6 -1.87,1.73 -1.87,3.41 0,1.73 0.53,3.94 1.61,6.68l9.58 23.03 7.2 -18.46c0.97,-2.4 1.44,-4.99 1.44,-7.76 0,-4.49 -1.93,-7.16 -5.81,-8l0 -3.08zm13.47 3.32l-9.1 0c1.16,0.97 1.93,1.95 2.33,2.98 0.41,1.03 0.71,2.61 0.9,4.78 0.89,-2.05 1.73,-3.61 2.58,-4.72 0.85,-1.11 1.95,-2.11 3.29,-3.04zm-22.07 49.28l1.91 -4.83 -14.89 -35.97c-1.12,-2.73 -2.05,-4.68 -2.82,-5.87 -0.75,-1.17 -1.63,-1.99 -2.64,-2.42 -1.02,-0.45 -2.36,-0.6 -4.01,-0.43 1.53,1.43 2.58,2.73 3.15,3.86 0.55,1.1 1.41,3.12 2.62,6.01l16.68 39.65zm-15.82 27.72c-3.15,-0.76 -4.72,-2.32 -4.72,-4.69 0,-1.47 0.92,-2.68 2.81,-3.65 -1.2,-0.35 -2.03,-0.53 -2.48,-0.53 -1.18,0 -2.17,0.39 -2.91,1.17 -0.75,0.78 -1.13,1.7 -1.13,2.79 0,1.58 0.73,2.87 2.19,3.82 1.48,0.96 3.54,1.33 6.24,1.09z"/>
  <path id="3" class="fil2" d="M389.32 53.05l-14.18 35.6 -4.45 0 -13.04 -29.83 -11.95 29.83 -4.43 0 -18.36 -41.56c-1.41,-3.32 -2.69,-5.64 -3.84,-6.98 -1.12,-1.31 -2.75,-2.05 -4.86,-2.21l0 -3.45 26.07 0 0 3.45c-2.91,0.12 -4.39,1.33 -4.39,3.65 0,0.7 0.12,1.46 0.36,2.3 0.23,0.84 0.49,1.62 0.8,2.34 0.32,0.72 0.67,1.52 1.11,2.4l10.67 23.76 6.91 -17.62 -3.17 -6.86c-1.26,-2.85 -2.48,-5.01 -3.64,-6.46 -1.14,-1.46 -2.68,-2.63 -4.61,-3.51l0 -3.45 28.34 0 0 3.45c-2.13,0 -3.78,0.28 -5.01,0.86 -1.2,0.59 -1.81,1.87 -1.81,3.82 0,1.04 0.14,1.99 0.44,2.83 0.27,0.84 0.96,2.53 2.04,5.05l9.81 21.89 6.22 -16c0.36,-0.84 0.75,-1.78 1.22,-2.85 0.46,-1.07 0.87,-2.28 1.21,-3.63 0.35,-1.38 0.53,-2.82 0.53,-4.34 0,-1.89 -0.53,-3.55 -1.56,-4.97 -1.04,-1.41 -2.52,-2.32 -4.45,-2.66l0 -3.45 19.85 0 0 3.45c-4.43,1.23 -8.37,6.28 -11.83,15.15zm5.2 -15.28l-8.61 0c1.24,0.84 2.09,1.79 2.54,2.86 0.47,1.06 0.79,2.54 0.98,4.41 0.36,-1.36 1.01,-2.71 1.97,-4.04 0.97,-1.36 1.99,-2.43 3.12,-3.23zm-39.82 10.23l16.79 37.94 0.69 0c0.73,-1.17 1.11,-2.24 1.11,-3.24 0,-1.3 -0.22,-2.47 -0.63,-3.54 -0.44,-1.04 -1.01,-2.34 -1.74,-3.86l-11.83 -26.71c-1.54,-3.41 -2.76,-5.79 -3.62,-7.14 -0.89,-1.38 -1.9,-2.3 -3.02,-2.82 -1.1,-0.49 -2.66,-0.73 -4.61,-0.73 1.54,1 2.78,2.29 3.75,3.9 0.96,1.6 2,3.67 3.11,6.2zm-27.97 2.83l15.46 35.11 0.93 0c0.57,-1.31 0.86,-2.4 0.86,-3.24 0,-1.38 -1.04,-4.32 -3.11,-8.85l-11.42 -26.1c-1.24,-2.83 -2.24,-4.91 -3.01,-6.22 -0.77,-1.29 -1.68,-2.24 -2.74,-2.83 -1.04,-0.58 -2.56,-0.85 -4.53,-0.8 0.81,0.59 1.58,1.41 2.29,2.46 0.71,1.05 1.51,2.46 2.4,4.29 0.87,1.83 1.83,3.88 2.87,6.18z"/>
  <path id="4" class="fil2" d="M450.68 72.14l2.32 1.87c-1.73,3.37 -3.8,6.12 -6.18,8.27 -2.39,2.16 -5.02,3.76 -7.88,4.81 -2.87,1.05 -5.87,1.56 -8.98,1.56 -4.23,0 -8.17,-1.07 -11.81,-3.18 -3.65,-2.14 -6.52,-5.2 -8.65,-9.2 -2.11,-4 -3.17,-8.56 -3.17,-13.65 0,-4.01 0.65,-7.79 1.93,-11.3 1.3,-3.53 3.09,-6.63 5.38,-9.32 2.28,-2.69 4.94,-4.78 7.97,-6.28 3.01,-1.5 6.24,-2.26 9.67,-2.26 3.47,0 6.77,0.76 9.91,2.26 3.15,1.5 5.63,3.57 7.48,6.2 1.34,1.93 2.32,3.9 2.91,5.93 0.59,2.02 1.07,4.46 1.42,7.29l-34.85 0c0.15,4.19 0.82,7.72 2.04,10.62 1.22,2.89 2.8,5.21 4.73,6.98 1.95,1.76 4.02,3.04 6.2,3.8 2.21,0.76 4.3,1.15 6.3,1.15 4.85,0 9.26,-1.85 13.26,-5.55zm-10.2 -20.82l4.01 0c-0.11,-4.49 -1,-7.82 -2.65,-9.98 -1.66,-2.13 -4.44,-3.57 -8.33,-4.29 2.48,1.15 4.25,2.67 5.33,4.54 1.09,1.87 1.64,4.7 1.64,8.52l0 1.21zm-21.98 0l20.09 0 0 -1.99c0,-2.32 -0.4,-4.41 -1.2,-6.24 -0.81,-1.83 -1.92,-3.22 -3.31,-4.21 -1.42,-0.98 -3.02,-1.48 -4.83,-1.48 -2.91,0 -5.37,1.36 -7.42,4.07 -2.03,2.71 -3.15,5.99 -3.33,9.85zm0.51 -11.86c-7.19,5.93 -10.79,13.71 -10.79,23.34 0,6.98 2.15,12.67 6.44,17.1 4.27,4.44 9.24,6.66 14.85,6.66 3.27,0 6.54,-0.7 9.82,-2.08 3.29,-1.37 6.07,-3.43 8.35,-6.14 -2.36,1.56 -4.74,2.82 -7.18,3.8 -2.47,0.97 -5.38,1.46 -8.77,1.46 -5.73,0 -10.51,-2.1 -14.33,-6.26 -3.84,-4.17 -5.75,-9.59 -5.75,-16.31 0,-4.25 0.63,-8.04 1.91,-11.41 1.28,-3.37 3.09,-6.76 5.45,-10.16z"/>
  <path id="5" class="fil2" d="M465.43 77.64l0 -56.99c0,-3.06 -0.46,-5.44 -1.38,-7.17 -0.93,-1.72 -3.07,-3.22 -6.42,-4.49l0 -2.36 18.78 -6.43 2.25 0 0 75.23c0,3.12 0.33,5.29 1,6.48 0.67,1.22 2.41,1.81 5.18,1.81l1.56 0 0 3.33 -28.77 0 0 -3.33 1.4 0c2.26,0 3.9,-0.49 4.9,-1.5 1,-1 1.5,-2.52 1.5,-4.58zm5.67 -2.46l0 -54.16c0,-2.86 -0.12,-5.13 -0.38,-6.84 -0.25,-1.7 -0.96,-3.12 -2.14,-4.27 -1.16,-1.13 -3.05,-1.7 -5.63,-1.7 -1.27,0 -2.29,0.04 -3.06,0.12 3.53,1.05 5.65,2.59 6.36,4.62 0.71,2.05 1.07,4.74 1.07,8.07l0 56.28c0,2.71 -0.79,4.86 -2.35,6.42 2.7,-0.12 4.4,-0.88 5.08,-2.32 0.69,-1.41 1.05,-3.49 1.05,-6.22z"/>
  <path id="6" class="fil2" d="M497.45 77.64l0 -56.99c0,-3.06 -0.46,-5.44 -1.38,-7.17 -0.93,-1.72 -3.07,-3.22 -6.42,-4.49l0 -2.36 18.78 -6.43 2.25 0 0 75.23c0,3.12 0.33,5.29 1,6.48 0.67,1.22 2.41,1.81 5.18,1.81l1.56 0 0 3.33 -28.77 0 0 -3.33 1.4 0c2.26,0 3.89,-0.49 4.9,-1.5 1,-1 1.5,-2.52 1.5,-4.58zm5.67 -2.46l0 -54.16c0,-2.86 -0.12,-5.13 -0.38,-6.84 -0.25,-1.7 -0.96,-3.12 -2.14,-4.27 -1.17,-1.13 -3.06,-1.7 -5.64,-1.7 -1.26,0 -2.28,0.04 -3.05,0.12 3.53,1.05 5.65,2.59 6.36,4.62 0.71,2.05 1.07,4.74 1.07,8.07l0 56.28c0,2.71 -0.79,4.86 -2.35,6.42 2.7,-0.12 4.39,-0.88 5.08,-2.32 0.69,-1.41 1.05,-3.49 1.05,-6.22z"/>
  <path id="7" class="fil3 str2" d="M151.47 84.11l0 -15.77 3.09 0c2.94,5.42 5.99,9.51 9.18,12.24 3.21,2.75 6.32,4.13 9.37,4.13 1.95,0 3.71,-0.66 5.26,-1.99 1.54,-1.32 2.31,-2.82 2.31,-4.5 0,-2.22 -0.57,-3.74 -1.74,-4.58 -4.35,-3 -8.52,-5.32 -12.52,-6.92 -10.58,-4.08 -15.87,-9.92 -15.87,-17.49 0,-4.5 1.65,-8.26 4.96,-11.25 3.31,-3.02 7.76,-4.52 13.39,-4.52 2.84,0 5.49,0.31 7.96,0.94 2.46,0.62 5.19,1.52 8.19,2.69l0.57 14.25 -2.82 0c-3.11,-4.82 -6.2,-8.44 -9.25,-10.88 -3.07,-2.44 -6.07,-3.67 -9.04,-3.67 -1.85,0 -3.37,0.63 -4.59,1.89 -1.2,1.27 -1.81,2.66 -1.81,4.18 0,1.95 0.75,3.51 2.24,4.66 1.5,1.13 4.67,2.84 9.48,5.08 4.8,2.25 9.02,4.41 12.62,6.48 2.26,1.26 4.08,3 5.41,5.24 1.36,2.24 2.03,4.68 2.03,7.33 0,3.08 -0.84,5.93 -2.56,8.52 -1.71,2.61 -4.07,4.68 -7.11,6.2 -3.01,1.52 -6.42,2.28 -10.18,2.28 -5.33,0 -11.54,-1.52 -18.57,-4.54zm2.11 -10.47l0 7.52c1.93,0.88 5.14,1.95 9.61,3.18 -2.4,-1.73 -4.18,-3.27 -5.32,-4.62 -1.16,-1.38 -2.6,-3.39 -4.29,-6.08zm28.3 7.64c1.04,-1.01 1.81,-1.91 2.3,-2.73 0.49,-0.82 0.75,-1.93 0.75,-3.35 0,-4.29 -2.99,-7.7 -8.98,-10.22 -5.4,-2.32 -9.67,-4.38 -12.78,-6.16 -3.11,-1.79 -5.38,-3.62 -6.75,-5.53 -1.4,-1.91 -2.09,-4.29 -2.09,-7.12 0,-1.73 0.47,-3.66 1.4,-5.77 -1.01,1.27 -1.8,2.55 -2.41,3.82 -0.59,1.25 -0.88,2.81 -0.88,4.66 0,3.8 1.3,6.88 3.92,9.26 2.62,2.36 6.51,4.74 11.65,7.19 5.16,2.42 8.89,4.39 11.15,5.93 2.26,1.56 3.41,3.69 3.41,6.4 0,1.01 -0.24,2.22 -0.69,3.62zm-0.46 -35.23l-0.51 -6.92c-2.54,-1.09 -4.53,-1.83 -5.94,-2.22 -1.44,-0.41 -3.51,-0.62 -6.25,-0.62 2.9,1.05 5.18,2.26 6.9,3.66 1.71,1.37 3.64,3.41 5.8,6.1z"/>
  <path id="8" class="fil3 str2" d="M221.89 87.05l-26.68 0 0 -3.33 0.87 0c2.1,0 3.62,-0.37 4.52,-1.09 0.91,-0.72 1.42,-1.58 1.58,-2.58 0.16,-1.01 0.24,-2.55 0.24,-4.62l0 -55.15c0,-3 -0.5,-5.4 -1.48,-7.19 -0.99,-1.78 -2.9,-3.1 -5.73,-3.98l0 -2.36 18.31 -6.43 2.25 0 0 62.05c9.06,-9.06 13.59,-15.42 13.59,-19.08 0,-1.43 -0.54,-2.62 -1.6,-3.59 -1.06,-0.96 -2.7,-1.58 -4.94,-1.8l0 -3.45 24.57 0 0 3.45c-0.37,0.08 -0.92,0.22 -1.61,0.41 -0.69,0.2 -1.44,0.45 -2.23,0.76 -0.78,0.3 -1.61,0.73 -2.5,1.31 -0.88,0.59 -1.87,1.44 -2.93,2.57 -1.93,2.07 -2.98,3.22 -3.13,3.42l-3.74 5.06 9.57 19.11c2,3.9 3.82,6.88 5.45,8.97 1.64,2.1 3.43,3.49 5.4,4.21l0 3.33 -24.56 0 0 -3.33c2.6,-0.37 3.9,-1.29 3.9,-2.83 0,-0.47 -0.14,-0.99 -0.39,-1.52 -0.28,-0.56 -0.81,-1.56 -1.62,-3.04l-7.68 -14.93 -5.55 5.55 0 11.6c0,3.32 2.05,5.05 6.12,5.17l0 3.33zm16.54 -49.28l-10.12 0c1.95,1.48 2.94,3.29 2.94,5.42 0,0.84 -0.24,1.85 -0.69,3.06 3.07,-4.21 5.69,-7.04 7.87,-8.48zm-4.6 35.25l-8.24 -16.07 -2.77 2.83 8.43 16.9c0.27,0.49 0.51,0.92 0.74,1.33 0.22,0.39 0.44,0.85 0.63,1.32 0.18,0.49 0.28,0.96 0.28,1.44 0,0.88 -0.55,1.86 -1.65,2.95 1.61,-0.04 2.83,-0.43 3.68,-1.21 0.85,-0.76 1.26,-1.77 1.26,-3 0,-1.21 -0.79,-3.36 -2.36,-6.49zm-25.62 4.15l0 -55.93c0,-3.49 -0.2,-6.13 -0.61,-7.96 -0.4,-1.83 -1.32,-3.18 -2.78,-4.09 -1.46,-0.9 -3.8,-1.27 -7.01,-1.11 2.56,1.17 4.29,2.65 5.18,4.46 0.88,1.81 1.32,4.27 1.32,7.39l0 56.77c0,1.95 -0.16,3.45 -0.46,4.48 -0.31,1 -1.02,1.99 -2.12,2.91 4.31,-0.12 6.48,-2.44 6.48,-6.92z"/>
  <path id="9" class="fil3 str2" d="M291.74 34.45l19.85 0 0 3.08c-1.87,0.84 -3.47,1.86 -4.77,3.1 -1.31,1.23 -2.42,2.6 -3.3,4.14 -0.91,1.54 -1.89,3.56 -2.94,6.02 -1.06,2.46 -2.1,5.11 -3.15,7.9l-15.5 41.15c-4.15,11.19 -9.7,16.77 -16.62,16.77 -2.26,0 -4.21,-0.65 -5.85,-1.95 -1.63,-1.31 -2.46,-2.87 -2.46,-4.72 0,-1.6 0.65,-2.93 1.93,-4.02 1.3,-1.09 2.82,-1.63 4.59,-1.63 0.85,0 1.77,0.23 2.8,0.68 1.02,0.43 2.03,0.91 2.99,1.36 0.99,0.47 1.89,0.7 2.7,0.72 2.54,-0.02 4.82,-2.78 6.85,-8.3l3.07 -8.64 -17.38 -42.11c-0.46,-1.26 -0.97,-2.53 -1.52,-3.82 -0.57,-1.32 -1.16,-2.45 -1.81,-3.41 -0.67,-0.95 -1.5,-1.73 -2.48,-2.3 -1.01,-0.6 -2.23,-0.9 -3.71,-0.94l0 -3.08 30.02 0 0 3.08c-2.39,0.16 -4.2,0.53 -5.46,1.1 -1.26,0.6 -1.87,1.73 -1.87,3.41 0,1.73 0.53,3.94 1.61,6.68l9.58 23.03 7.2 -18.46c0.97,-2.4 1.44,-4.99 1.44,-7.76 0,-4.49 -1.93,-7.16 -5.81,-8l0 -3.08zm13.47 3.32l-9.1 0c1.16,0.97 1.93,1.95 2.33,2.98 0.41,1.03 0.71,2.61 0.9,4.78 0.89,-2.05 1.73,-3.61 2.58,-4.72 0.85,-1.11 1.95,-2.11 3.29,-3.04zm-22.07 49.28l1.91 -4.83 -14.89 -35.97c-1.12,-2.73 -2.05,-4.68 -2.82,-5.87 -0.75,-1.17 -1.63,-1.99 -2.64,-2.42 -1.02,-0.45 -2.36,-0.6 -4.01,-0.43 1.53,1.43 2.58,2.73 3.15,3.86 0.55,1.1 1.41,3.12 2.62,6.01l16.68 39.65zm-15.82 27.72c-3.15,-0.76 -4.72,-2.32 -4.72,-4.69 0,-1.47 0.92,-2.68 2.81,-3.65 -1.2,-0.35 -2.03,-0.53 -2.48,-0.53 -1.18,0 -2.17,0.39 -2.91,1.17 -0.75,0.78 -1.13,1.7 -1.13,2.79 0,1.58 0.73,2.87 2.19,3.82 1.48,0.96 3.54,1.33 6.24,1.09z"/>
  <path id="10" class="fil3 str2" d="M389.32 53.05l-14.18 35.6 -4.45 0 -13.04 -29.83 -11.95 29.83 -4.43 0 -18.36 -41.56c-1.41,-3.32 -2.69,-5.64 -3.84,-6.98 -1.12,-1.31 -2.75,-2.05 -4.86,-2.21l0 -3.45 26.07 0 0 3.45c-2.91,0.12 -4.39,1.33 -4.39,3.65 0,0.7 0.12,1.46 0.36,2.3 0.23,0.84 0.49,1.62 0.8,2.34 0.32,0.72 0.67,1.52 1.11,2.4l10.67 23.76 6.91 -17.62 -3.17 -6.86c-1.26,-2.85 -2.48,-5.01 -3.64,-6.46 -1.14,-1.46 -2.68,-2.63 -4.61,-3.51l0 -3.45 28.34 0 0 3.45c-2.13,0 -3.78,0.28 -5.01,0.86 -1.2,0.59 -1.81,1.87 -1.81,3.82 0,1.04 0.14,1.99 0.44,2.83 0.27,0.84 0.96,2.53 2.04,5.05l9.81 21.89 6.22 -16c0.36,-0.84 0.75,-1.78 1.22,-2.85 0.46,-1.07 0.87,-2.28 1.21,-3.63 0.35,-1.38 0.53,-2.82 0.53,-4.34 0,-1.89 -0.53,-3.55 -1.56,-4.97 -1.04,-1.41 -2.52,-2.32 -4.45,-2.66l0 -3.45 19.85 0 0 3.45c-4.43,1.23 -8.37,6.28 -11.83,15.15zm5.2 -15.28l-8.61 0c1.24,0.84 2.09,1.79 2.54,2.86 0.47,1.06 0.79,2.54 0.98,4.41 0.36,-1.36 1.01,-2.71 1.97,-4.04 0.97,-1.36 1.99,-2.43 3.12,-3.23zm-39.82 10.23l16.79 37.94 0.69 0c0.73,-1.17 1.11,-2.24 1.11,-3.24 0,-1.3 -0.22,-2.47 -0.63,-3.54 -0.44,-1.04 -1.01,-2.34 -1.74,-3.86l-11.83 -26.71c-1.54,-3.41 -2.76,-5.79 -3.62,-7.14 -0.89,-1.38 -1.9,-2.3 -3.02,-2.82 -1.1,-0.49 -2.66,-0.73 -4.61,-0.73 1.54,1 2.78,2.29 3.75,3.9 0.96,1.6 2,3.67 3.11,6.2zm-27.97 2.83l15.46 35.11 0.93 0c0.57,-1.31 0.86,-2.4 0.86,-3.24 0,-1.38 -1.04,-4.32 -3.11,-8.85l-11.42 -26.1c-1.24,-2.83 -2.24,-4.91 -3.01,-6.22 -0.77,-1.29 -1.68,-2.24 -2.74,-2.83 -1.04,-0.58 -2.56,-0.85 -4.53,-0.8 0.81,0.59 1.58,1.41 2.29,2.46 0.71,1.05 1.51,2.46 2.4,4.29 0.87,1.83 1.83,3.88 2.87,6.18z"/>
  <path id="11" class="fil3 str2" d="M450.68 72.14l2.32 1.87c-1.73,3.37 -3.8,6.12 -6.18,8.27 -2.39,2.16 -5.02,3.76 -7.88,4.81 -2.87,1.05 -5.87,1.56 -8.98,1.56 -4.23,0 -8.17,-1.07 -11.81,-3.18 -3.65,-2.14 -6.52,-5.2 -8.65,-9.2 -2.11,-4 -3.17,-8.56 -3.17,-13.65 0,-4.01 0.65,-7.79 1.93,-11.3 1.3,-3.53 3.09,-6.63 5.38,-9.32 2.28,-2.69 4.94,-4.78 7.97,-6.28 3.01,-1.5 6.24,-2.26 9.67,-2.26 3.47,0 6.77,0.76 9.91,2.26 3.15,1.5 5.63,3.57 7.48,6.2 1.34,1.93 2.32,3.9 2.91,5.93 0.59,2.02 1.07,4.46 1.42,7.29l-34.85 0c0.15,4.19 0.82,7.72 2.04,10.62 1.22,2.89 2.8,5.21 4.73,6.98 1.95,1.76 4.02,3.04 6.2,3.8 2.21,0.76 4.3,1.15 6.3,1.15 4.85,0 9.26,-1.85 13.26,-5.55zm-10.2 -20.82l4.01 0c-0.11,-4.49 -1,-7.82 -2.65,-9.98 -1.66,-2.13 -4.44,-3.57 -8.33,-4.29 2.48,1.15 4.25,2.67 5.33,4.54 1.09,1.87 1.64,4.7 1.64,8.52l0 1.21zm-21.98 0l20.09 0 0 -1.99c0,-2.32 -0.4,-4.41 -1.2,-6.24 -0.81,-1.83 -1.92,-3.22 -3.31,-4.21 -1.42,-0.98 -3.02,-1.48 -4.83,-1.48 -2.91,0 -5.37,1.36 -7.42,4.07 -2.03,2.71 -3.15,5.99 -3.33,9.85zm0.51 -11.86c-7.19,5.93 -10.79,13.71 -10.79,23.34 0,6.98 2.15,12.67 6.44,17.1 4.27,4.44 9.24,6.66 14.85,6.66 3.27,0 6.54,-0.7 9.82,-2.08 3.29,-1.37 6.07,-3.43 8.35,-6.14 -2.36,1.56 -4.74,2.82 -7.18,3.8 -2.47,0.97 -5.38,1.46 -8.77,1.46 -5.73,0 -10.51,-2.1 -14.33,-6.26 -3.84,-4.17 -5.75,-9.59 -5.75,-16.31 0,-4.25 0.63,-8.04 1.91,-11.41 1.28,-3.37 3.09,-6.76 5.45,-10.16z"/>
  <path id="12" class="fil3 str2" d="M465.43 77.64l0 -56.99c0,-3.06 -0.46,-5.44 -1.38,-7.17 -0.93,-1.72 -3.07,-3.22 -6.42,-4.49l0 -2.36 18.78 -6.43 2.25 0 0 75.23c0,3.12 0.33,5.29 1,6.48 0.67,1.22 2.41,1.81 5.18,1.81l1.56 0 0 3.33 -28.77 0 0 -3.33 1.4 0c2.26,0 3.9,-0.49 4.9,-1.5 1,-1 1.5,-2.52 1.5,-4.58zm5.67 -2.46l0 -54.16c0,-2.86 -0.12,-5.13 -0.38,-6.84 -0.25,-1.7 -0.96,-3.12 -2.14,-4.27 -1.16,-1.13 -3.05,-1.7 -5.63,-1.7 -1.27,0 -2.29,0.04 -3.06,0.12 3.53,1.05 5.65,2.59 6.36,4.62 0.71,2.05 1.07,4.74 1.07,8.07l0 56.28c0,2.71 -0.79,4.86 -2.35,6.42 2.7,-0.12 4.4,-0.88 5.08,-2.32 0.69,-1.41 1.05,-3.49 1.05,-6.22z"/>
  <path id="13" class="fil3 str2" d="M497.45 77.64l0 -56.99c0,-3.06 -0.46,-5.44 -1.38,-7.17 -0.93,-1.72 -3.07,-3.22 -6.42,-4.49l0 -2.36 18.78 -6.43 2.25 0 0 75.23c0,3.12 0.33,5.29 1,6.48 0.67,1.22 2.41,1.81 5.18,1.81l1.56 0 0 3.33 -28.77 0 0 -3.33 1.4 0c2.26,0 3.89,-0.49 4.9,-1.5 1,-1 1.5,-2.52 1.5,-4.58zm5.67 -2.46l0 -54.16c0,-2.86 -0.12,-5.13 -0.38,-6.84 -0.25,-1.7 -0.96,-3.12 -2.14,-4.27 -1.17,-1.13 -3.06,-1.7 -5.64,-1.7 -1.26,0 -2.28,0.04 -3.05,0.12 3.53,1.05 5.65,2.59 6.36,4.62 0.71,2.05 1.07,4.74 1.07,8.07l0 56.28c0,2.71 -0.79,4.86 -2.35,6.42 2.7,-0.12 4.39,-0.88 5.08,-2.32 0.69,-1.41 1.05,-3.49 1.05,-6.22z"/>
  <path class="fil4" d="M155.25 119.09l-1.21 7.34 2.83 0c0.93,0 1.53,0.14 1.81,0.4 0.28,0.27 0.42,0.73 0.42,1.37 0,0.64 -0.35,1.34 -1.03,2.1 -0.36,0.4 -1.01,0.6 -1.94,0.6l-7.15 0c-0.78,0 -1.3,-0.13 -1.58,-0.4 -0.27,-0.27 -0.41,-0.72 -0.41,-1.36 0,-0.64 0.34,-1.34 1.01,-2.1 0.37,-0.41 1.02,-0.61 1.95,-0.61l0.59 0 3.35 -20.21 -1.33 0c-0.92,0 -1.53,-0.14 -1.81,-0.4 -0.27,-0.27 -0.41,-0.73 -0.41,-1.37 0,-0.64 0.34,-1.33 1,-2.08 0.38,-0.42 1.03,-0.62 1.96,-0.62l4.82 0 -0.25 1.49c1.87,-1.41 3.73,-2.12 5.59,-2.12 2.09,0 3.78,0.82 5.1,2.45 1.32,1.63 1.98,3.62 1.98,5.95 0,1.82 -0.45,3.64 -1.35,5.46 -0.91,1.83 -2.23,3.3 -3.96,4.44 -1.73,1.12 -3.41,1.69 -5.03,1.69 -1.81,0 -3.46,-0.67 -4.95,-2.02zm5.57 -2.45c1.66,0 3.1,-0.67 4.31,-1.98 1.21,-1.33 1.82,-2.63 1.82,-3.92 0,-1.47 -0.4,-2.7 -1.18,-3.68 -0.79,-0.98 -1.82,-1.47 -3.09,-1.47 -1.64,0 -3.09,0.75 -4.35,2.24 -1.26,1.48 -1.89,2.9 -1.89,4.27 0,1.15 0.41,2.2 1.21,3.14 0.8,0.93 1.86,1.4 3.17,1.4z"/>
  <path id="1" class="fil4" d="M183.24 121.56l0.17 -1.03c-1.95,1.16 -4.01,1.74 -6.18,1.74 -1.61,0 -2.9,-0.52 -3.86,-1.57 -0.95,-1.05 -1.43,-2.24 -1.43,-3.59 0,-1.09 0.33,-2.24 0.99,-3.45 0.89,-1.64 2.11,-2.9 3.66,-3.81 1.55,-0.9 3.27,-1.35 5.16,-1.35 1.05,0 2.24,0.15 3.59,0.44l0.17 -1.07c0.02,-0.15 0.04,-0.3 0.04,-0.44 0,-0.54 -0.17,-0.96 -0.5,-1.25 -0.43,-0.39 -1.23,-0.59 -2.41,-0.59 -1.07,0 -2.45,0.26 -4.14,0.79 -0.64,0.19 -1.14,0.29 -1.51,0.29 -0.37,0 -0.69,-0.16 -0.94,-0.48 -0.25,-0.32 -0.37,-0.75 -0.37,-1.27 0,-0.73 0.18,-1.33 0.54,-1.8 0.36,-0.47 1.36,-0.93 2.99,-1.36 1.64,-0.42 3.04,-0.64 4.21,-0.64 1.9,0 3.34,0.51 4.28,1.52 0.96,1.01 1.43,2.24 1.43,3.7 0,0.47 -0.04,0.97 -0.12,1.5l-1.53 9.25 0.61 0c1.01,0 1.65,0.13 1.93,0.4 0.28,0.27 0.42,0.72 0.42,1.36 0,0.64 -0.35,1.34 -1.03,2.12 -0.36,0.39 -1.01,0.59 -1.94,0.59l-4.23 0zm1.33 -8.02c-1.33,-0.35 -2.6,-0.52 -3.79,-0.52 -1.55,0 -2.95,0.52 -4.2,1.58 -0.72,0.6 -1.08,1.17 -1.08,1.7 0,0.43 0.25,0.79 0.75,1.08 0.49,0.28 1.12,0.42 1.9,0.42 0.81,0 1.78,-0.21 2.93,-0.62 1.14,-0.42 2.2,-0.99 3.17,-1.73l0.32 -1.91z"/>
  <path id="2" class="fil4" d="M203.63 101.75l-0.45 2.78c1.7,-1.38 3,-2.29 3.92,-2.73 0.92,-0.46 1.74,-0.68 2.48,-0.68 1,0 1.88,0.39 2.64,1.18 0.76,0.8 1.14,1.53 1.14,2.17 0,0.72 -0.23,1.36 -0.67,1.93 -0.45,0.56 -0.95,0.85 -1.51,0.85 -0.43,0 -0.84,-0.28 -1.22,-0.83 -0.39,-0.55 -0.77,-0.83 -1.14,-0.83 -0.42,0 -1.1,0.31 -2.04,0.91 -0.94,0.61 -2.46,1.87 -4.56,3.79l-1.12 6.8 5.68 0c0.93,0 1.53,0.13 1.81,0.4 0.28,0.27 0.42,0.72 0.42,1.36 0,0.64 -0.35,1.34 -1.03,2.12 -0.36,0.39 -1.01,0.59 -1.94,0.59l-11.52 0c-0.77,0 -1.29,-0.14 -1.57,-0.41 -0.27,-0.26 -0.41,-0.72 -0.41,-1.36 0,-0.64 0.33,-1.33 1.01,-2.09 0.37,-0.41 1.02,-0.61 1.95,-0.61l2.1 0 1.8 -10.87 -1.98 0c-0.94,0 -1.54,-0.14 -1.82,-0.4 -0.27,-0.27 -0.41,-0.73 -0.41,-1.37 0,-0.64 0.33,-1.33 1,-2.08 0.38,-0.42 1.03,-0.62 1.96,-0.62l5.48 0z"/>
  <path id="3" class="fil4" d="M223.26 106.22l-1.48 8.96c-0.07,0.45 -0.1,0.82 -0.1,1.11 0,0.4 0.13,0.71 0.4,0.94 0.46,0.38 1.21,0.57 2.26,0.57 1.79,0 3.53,-0.48 5.21,-1.45 0.65,-0.38 1.13,-0.56 1.46,-0.56 0.39,0 0.71,0.16 0.96,0.49 0.25,0.32 0.37,0.75 0.37,1.27 0,0.68 -0.21,1.28 -0.63,1.79 -0.6,0.72 -1.8,1.39 -3.59,2.01 -1.79,0.62 -3.34,0.92 -4.65,0.92 -1.07,0 -2.1,-0.23 -3.08,-0.7 -0.71,-0.33 -1.29,-0.86 -1.72,-1.59 -0.43,-0.73 -0.65,-1.56 -0.65,-2.51 0,-0.47 0.04,-0.95 0.12,-1.41l1.62 -9.84 -1.26 0c-0.77,0 -1.29,-0.16 -1.57,-0.47 -0.28,-0.31 -0.42,-0.75 -0.42,-1.3 0,-0.89 0.33,-1.63 0.99,-2.23 0.35,-0.32 0.93,-0.47 1.75,-0.47l1.26 0 0.67 -4.04c0.17,-1.08 0.46,-1.84 0.86,-2.3 0.4,-0.45 0.86,-0.69 1.39,-0.69 0.39,0 0.73,0.17 0.99,0.49 0.27,0.33 0.4,0.7 0.4,1.13 0,0.31 -0.04,0.75 -0.15,1.34l-0.67 4.07 6.47 0c0.78,0 1.31,0.15 1.59,0.47 0.28,0.31 0.42,0.75 0.42,1.31 0,0.86 -0.33,1.59 -0.97,2.19 -0.37,0.33 -0.96,0.5 -1.78,0.5l-6.47 0z"/>
  <path id="4" class="fil4" d="M249.14 106.98c-0.48,-0.46 -1.02,-0.81 -1.61,-1.05 -0.59,-0.23 -1.23,-0.34 -1.92,-0.34 -1.12,0 -2.07,0.2 -2.86,0.58 -0.78,0.39 -1.18,0.78 -1.18,1.17 0,0.26 0.13,0.51 0.39,0.75 0.36,0.32 1.19,0.6 2.49,0.83 2.03,0.36 3.51,0.74 4.44,1.14 0.94,0.39 1.69,1.02 2.24,1.9 0.56,0.87 0.84,1.84 0.84,2.9 0,2.14 -0.9,3.92 -2.7,5.32 -1.8,1.39 -3.89,2.09 -6.27,2.09 -1.01,0 -1.93,-0.11 -2.76,-0.33 -0.84,-0.22 -1.57,-0.54 -2.21,-0.96 -0.42,0.38 -0.82,0.58 -1.21,0.58 -0.44,0 -0.79,-0.17 -1.06,-0.49 -0.26,-0.33 -0.4,-0.73 -0.4,-1.18 0,-0.29 0.05,-0.73 0.15,-1.34l0.26 -1.5c0.17,-1.1 0.46,-1.87 0.87,-2.33 0.4,-0.45 0.86,-0.68 1.39,-0.68 0.42,0 0.74,0.15 0.97,0.46 0.23,0.3 0.36,0.82 0.41,1.56 0.43,0.57 1,1 1.71,1.3 0.7,0.29 1.55,0.44 2.52,0.44 1.72,0 3.08,-0.36 4.07,-1.07 0.45,-0.32 0.67,-0.68 0.67,-1.08 0,-0.57 -0.28,-1.02 -0.82,-1.35 -0.55,-0.32 -1.7,-0.61 -3.45,-0.87 -2.51,-0.36 -4.17,-0.97 -4.95,-1.81 -0.79,-0.84 -1.18,-1.93 -1.18,-3.25 0,-1.15 0.29,-2.24 0.87,-3.28 0.58,-1.03 1.46,-1.91 2.62,-2.61 1.5,-0.91 3.13,-1.36 4.86,-1.36 0.81,0 1.58,0.1 2.3,0.3 0.71,0.19 1.38,0.5 2,0.91 0.49,-0.39 0.89,-0.58 1.2,-0.58 0.37,0 0.68,0.16 0.94,0.48 0.26,0.33 0.39,0.71 0.39,1.14 0,0.31 -0.05,0.75 -0.14,1.34l-0.19 1.09c-0.18,1.07 -0.47,1.83 -0.88,2.28 -0.4,0.46 -0.86,0.69 -1.39,0.69 -0.42,0 -0.76,-0.17 -1.02,-0.49 -0.26,-0.33 -0.4,-0.77 -0.4,-1.3z"/>
  <path class="fil4" d="M306.21 110.09l2.72 2.27c-0.26,0.69 -0.58,1.43 -0.99,2.24 -0.41,0.8 -0.79,1.42 -1.14,1.88 0.5,0.74 1.14,1.58 1.92,2.5l-2.38 3.43c-0.3,-0.22 -0.68,-0.59 -1.14,-1.11 -0.47,-0.53 -0.86,-1.02 -1.17,-1.48 -0.64,0.7 -1.44,1.28 -2.4,1.74 -0.96,0.47 -1.99,0.7 -3.1,0.7 -2.01,0 -3.59,-0.74 -4.73,-2.21 -1.15,-1.48 -1.72,-3.29 -1.72,-5.43 0,-1.36 0.22,-2.62 0.68,-3.79 0.45,-1.17 1.04,-2.17 1.77,-3.01 0.52,-0.59 1.37,-1.33 2.54,-2.2 -0.57,-1.72 -0.85,-3.23 -0.85,-4.51 0,-1.88 0.49,-3.47 1.48,-4.75 0.99,-1.28 2.3,-1.92 3.92,-1.92 1.39,0 2.49,0.51 3.3,1.53 0.82,1.02 1.23,2.22 1.23,3.59 0,1.16 -0.36,2.42 -1.06,3.77 -0.7,1.35 -1.86,2.58 -3.46,3.71 0.5,1.17 1.13,2.52 1.88,4.04 0.45,0.93 0.81,1.59 1.08,2 0.46,-0.62 0.99,-1.62 1.62,-2.99zm-5.96 -6.65c1.04,-0.74 1.77,-1.48 2.2,-2.23 0.3,-0.53 0.45,-1.08 0.45,-1.63 0,-0.5 -0.12,-0.92 -0.37,-1.24 -0.24,-0.33 -0.57,-0.49 -1,-0.49 -0.52,0 -0.97,0.26 -1.32,0.76 -0.35,0.51 -0.53,1.18 -0.53,2 0,0.78 0.19,1.72 0.57,2.83zm-1.81 5.89c-1.74,1.21 -2.6,2.81 -2.6,4.8 0,1.13 0.25,2.05 0.77,2.78 0.52,0.71 1.21,1.08 2.07,1.08 1.04,0 2.12,-0.51 3.23,-1.53 -1.33,-2.25 -2.49,-4.63 -3.47,-7.13z"/>
  <path id="1" class="fil4" d="M328.3 114.14l-13.2 0c0.15,1.15 0.59,2.08 1.32,2.81 0.73,0.72 1.83,1.07 3.3,1.07 1.21,0 2.86,-0.35 4.94,-1.07 0.87,-0.29 1.47,-0.44 1.79,-0.44 0.35,0 0.64,0.15 0.87,0.47 0.23,0.31 0.34,0.72 0.34,1.23 0,0.74 -0.23,1.4 -0.71,1.97 -0.48,0.58 -1.61,1.11 -3.37,1.59 -1.77,0.48 -3.37,0.72 -4.8,0.72 -2.24,0 -3.97,-0.78 -5.2,-2.35 -1.22,-1.56 -1.83,-3.56 -1.83,-5.98 0,-2.03 0.44,-4.05 1.33,-6.09 0.88,-2.04 2.15,-3.66 3.79,-4.87 1.64,-1.21 3.32,-1.82 5.05,-1.82 2.03,0 3.68,0.78 4.94,2.33 1.26,1.56 1.9,3.73 1.9,6.53 0,0.59 -0.06,1.26 -0.16,2l-0.3 1.9zm-2.89 -4.46c-0.29,-1.23 -0.78,-2.17 -1.48,-2.84 -0.7,-0.67 -1.6,-1 -2.69,-1 -1.1,0 -2.1,0.32 -2.99,0.95 -0.88,0.64 -1.67,1.6 -2.36,2.89l9.52 0z"/>
  <path id="2" class="fil4" d="M344.29 93.52l-3.64 23.79 4.57 0c0.87,0 1.42,0.13 1.68,0.4 0.25,0.27 0.38,0.72 0.38,1.36 0,0.64 -0.32,1.34 -0.97,2.12 -0.32,0.39 -0.91,0.58 -1.77,0.58l-11.66 0c-0.87,0 -1.42,-0.13 -1.68,-0.4 -0.25,-0.27 -0.38,-0.72 -0.38,-1.36 0,-0.64 0.31,-1.33 0.94,-2.08 0.34,-0.41 0.94,-0.62 1.8,-0.62l3.86 0 2.96 -19.33 -3.28 0c-0.86,0 -1.42,-0.13 -1.68,-0.4 -0.25,-0.27 -0.38,-0.72 -0.38,-1.36 0,-0.64 0.32,-1.34 0.95,-2.09 0.33,-0.41 0.93,-0.61 1.79,-0.61l6.51 0z"/>
  <path id="3" class="fil4" d="M366.96 114.14l-13.2 0c0.14,1.15 0.58,2.08 1.32,2.81 0.73,0.72 1.83,1.07 3.29,1.07 1.22,0 2.86,-0.35 4.95,-1.07 0.87,-0.29 1.46,-0.44 1.79,-0.44 0.34,0 0.63,0.15 0.86,0.47 0.23,0.31 0.35,0.72 0.35,1.23 0,0.74 -0.24,1.4 -0.72,1.97 -0.47,0.58 -1.6,1.11 -3.37,1.59 -1.77,0.48 -3.37,0.72 -4.8,0.72 -2.24,0 -3.97,-0.78 -5.19,-2.35 -1.22,-1.56 -1.83,-3.56 -1.83,-5.98 0,-2.03 0.44,-4.05 1.32,-6.09 0.89,-2.04 2.16,-3.66 3.79,-4.87 1.64,-1.21 3.33,-1.82 5.05,-1.82 2.04,0 3.69,0.78 4.95,2.33 1.26,1.56 1.89,3.73 1.89,6.53 0,0.59 -0.05,1.26 -0.15,2l-0.3 1.9zm-2.9 -4.46c-0.28,-1.23 -0.77,-2.17 -1.47,-2.84 -0.7,-0.67 -1.6,-1 -2.7,-1 -1.1,0 -2.09,0.32 -2.98,0.95 -0.89,0.64 -1.68,1.6 -2.37,2.89l9.52 0z"/>
  <path id="4" class="fil4" d="M384.94 102.8c0.47,-0.5 0.91,-0.76 1.31,-0.76 0.37,0 0.68,0.17 0.92,0.5 0.25,0.32 0.38,0.71 0.38,1.16 0,0.27 -0.05,0.71 -0.14,1.31l-0.45 2.87c-0.17,1.07 -0.43,1.84 -0.81,2.28 -0.36,0.46 -0.79,0.68 -1.27,0.68 -0.45,0 -0.8,-0.18 -1.04,-0.53 -0.19,-0.26 -0.29,-0.8 -0.29,-1.6 0,-0.8 -0.19,-1.41 -0.58,-1.8 -0.74,-0.71 -1.79,-1.07 -3.13,-1.07 -2.06,0 -3.69,1.07 -4.9,3.21 -0.83,1.46 -1.24,3.02 -1.24,4.66 0,1.31 0.36,2.35 1.09,3.14 0.73,0.78 2.01,1.17 3.86,1.17 1.32,0 2.43,-0.18 3.35,-0.55 0.54,-0.23 1.08,-0.62 1.62,-1.16 0.54,-0.55 0.99,-0.83 1.36,-0.83 0.38,0 0.69,0.17 0.94,0.52 0.25,0.34 0.37,0.77 0.37,1.3 0,1.04 -0.52,2.01 -1.56,2.92 -1.72,1.51 -4.08,2.27 -7.08,2.27 -2.49,0 -4.32,-0.73 -5.5,-2.18 -1.18,-1.45 -1.77,-3.31 -1.77,-5.58 0,-2.14 0.45,-4.29 1.35,-6.46 0.89,-2.17 2.13,-3.86 3.72,-5.07 1.58,-1.21 3.28,-1.82 5.1,-1.82 0.88,0 1.69,0.11 2.42,0.35 0.73,0.24 1.39,0.6 1.97,1.07z"/>
  <path id="5" class="fil4" d="M397.51 106.46l-1.36 8.95c-0.07,0.45 -0.1,0.82 -0.1,1.11 0,0.4 0.13,0.71 0.38,0.94 0.42,0.38 1.11,0.56 2.08,0.56 1.65,0 3.25,-0.48 4.8,-1.45 0.61,-0.37 1.05,-0.55 1.36,-0.55 0.35,0 0.65,0.16 0.88,0.49 0.23,0.32 0.35,0.74 0.35,1.26 0,0.69 -0.2,1.28 -0.59,1.79 -0.55,0.72 -1.66,1.39 -3.31,2.01 -1.65,0.61 -3.08,0.92 -4.29,0.92 -0.99,0 -1.94,-0.23 -2.84,-0.7 -0.66,-0.34 -1.2,-0.86 -1.59,-1.59 -0.4,-0.72 -0.6,-1.56 -0.6,-2.5 0,-0.48 0.03,-0.95 0.11,-1.42l1.5 -9.82 -1.17 0c-0.71,0 -1.19,-0.15 -1.45,-0.46 -0.26,-0.32 -0.38,-0.75 -0.38,-1.3 0,-0.88 0.3,-1.63 0.9,-2.22 0.33,-0.32 0.87,-0.48 1.62,-0.48l1.16 0 0.62 -4.02c0.16,-1.08 0.42,-1.84 0.8,-2.3 0.37,-0.46 0.79,-0.69 1.28,-0.69 0.36,0 0.67,0.17 0.92,0.49 0.24,0.32 0.37,0.7 0.37,1.13 0,0.3 -0.05,0.75 -0.14,1.34l-0.63 4.05 5.97 0c0.73,0 1.22,0.16 1.47,0.47 0.26,0.31 0.39,0.75 0.39,1.32 0,0.85 -0.3,1.58 -0.9,2.18 -0.34,0.33 -0.88,0.49 -1.63,0.49l-5.98 0z"/>
  <path id="6" class="fil4" d="M418.05 102l-0.42 2.77c1.58,-1.36 2.78,-2.27 3.63,-2.72 0.84,-0.45 1.6,-0.67 2.28,-0.67 0.92,0 1.74,0.39 2.44,1.18 0.7,0.79 1.05,1.52 1.05,2.16 0,0.72 -0.21,1.36 -0.62,1.92 -0.41,0.57 -0.87,0.85 -1.39,0.85 -0.4,0 -0.77,-0.27 -1.13,-0.83 -0.36,-0.55 -0.71,-0.82 -1.05,-0.82 -0.39,0 -1.01,0.3 -1.88,0.91 -0.87,0.61 -2.27,1.86 -4.21,3.78l-1.04 6.78 5.25 0c0.86,0 1.41,0.13 1.67,0.4 0.25,0.27 0.38,0.72 0.38,1.36 0,0.64 -0.31,1.34 -0.95,2.12 -0.33,0.39 -0.93,0.58 -1.78,0.58l-10.63 0c-0.72,0 -1.2,-0.13 -1.46,-0.4 -0.25,-0.27 -0.38,-0.72 -0.38,-1.36 0,-0.64 0.31,-1.33 0.94,-2.08 0.34,-0.41 0.94,-0.62 1.8,-0.62l1.94 0 1.66 -10.85 -1.83 0c-0.86,0 -1.42,-0.13 -1.68,-0.4 -0.25,-0.27 -0.38,-0.72 -0.38,-1.36 0,-0.64 0.31,-1.33 0.93,-2.07 0.34,-0.42 0.95,-0.63 1.81,-0.63l5.05 0z"/>
  <path id="7" class="fil4" d="M434.94 122.49c-1.33,0 -2.55,-0.37 -3.64,-1.13 -1.09,-0.75 -1.92,-1.76 -2.46,-3.04 -0.56,-1.28 -0.83,-2.68 -0.83,-4.19 0,-1.87 0.46,-3.86 1.38,-5.95 0.92,-2.1 2.21,-3.75 3.85,-4.97 1.64,-1.22 3.33,-1.83 5.03,-1.83 1.23,0 2.38,0.39 3.46,1.17 1.08,0.79 1.89,1.84 2.44,3.15 0.54,1.32 0.81,2.76 0.81,4.33 0,2.04 -0.43,4.03 -1.3,5.97 -0.86,1.94 -2.12,3.51 -3.77,4.7 -1.65,1.19 -3.3,1.79 -4.97,1.79zm0.66 -4.47c1.64,0 3.06,-0.72 4.26,-2.19 1.2,-1.47 1.8,-3 1.8,-4.6 0,-1.55 -0.38,-2.85 -1.14,-3.87 -0.76,-1.02 -1.78,-1.52 -3.04,-1.52 -1.79,0 -3.34,0.93 -4.62,2.8 -1.02,1.49 -1.53,2.99 -1.53,4.49 0,1.27 0.39,2.4 1.18,3.4 0.79,1 1.82,1.49 3.09,1.49z"/>
  <path id="8" class="fil4" d="M454.1 102l-0.14 1.49c0.73,-0.77 1.42,-1.3 2.08,-1.63 0.65,-0.32 1.41,-0.48 2.27,-0.48 1.66,0 2.92,0.52 3.78,1.56 0.86,1.05 1.29,2.42 1.29,4.11 0,0.61 -0.06,1.27 -0.17,1.98l-1.37 8.28c1.31,0 2.09,0.13 2.35,0.4 0.25,0.27 0.38,0.72 0.38,1.36 0,0.64 -0.32,1.34 -0.95,2.12 -0.34,0.39 -0.93,0.58 -1.79,0.58l-3.9 0c-0.86,0 -1.42,-0.13 -1.68,-0.4 -0.25,-0.27 -0.38,-0.72 -0.38,-1.36 0,-0.64 0.24,-1.25 0.73,-1.83 0.48,-0.58 1.15,-0.87 2.01,-0.87l1.36 -8.46c0.06,-0.35 0.08,-0.68 0.08,-0.98 0,-0.57 -0.15,-1.02 -0.47,-1.35 -0.43,-0.46 -1.08,-0.68 -1.93,-0.68 -0.74,0 -1.42,0.2 -2.05,0.59 -0.63,0.4 -1.48,1.26 -2.56,2.58l-1.28 8.3c1.31,0 2.07,0.11 2.29,0.34 0.29,0.31 0.44,0.78 0.44,1.42 0,0.64 -0.32,1.34 -0.95,2.12 -0.34,0.39 -0.93,0.58 -1.79,0.58l-3.9 0c-0.86,0 -1.42,-0.13 -1.68,-0.4 -0.25,-0.27 -0.38,-0.72 -0.38,-1.36 0,-0.64 0.33,-1.35 0.98,-2.15 0.31,-0.36 0.9,-0.55 1.76,-0.55l1.66 -10.85c-1.31,0 -2.09,-0.13 -2.34,-0.4 -0.25,-0.27 -0.38,-0.72 -0.38,-1.36 0,-0.64 0.31,-1.33 0.93,-2.07 0.34,-0.42 0.94,-0.63 1.8,-0.63l3.9 0z"/>
  <path id="9" class="fil4" d="M479.1 93.52l-0.68 4.73 -3.83 0 0.67 -4.73 3.84 0zm-0.8 8.48l-2.35 15.31 4.57 0c0.67,0 1.13,0.13 1.38,0.4 0.26,0.27 0.38,0.72 0.38,1.36 0,0.64 -0.32,1.34 -0.96,2.12 -0.32,0.39 -0.82,0.58 -1.48,0.58l-11.67 0c-0.66,0 -1.12,-0.13 -1.38,-0.4 -0.25,-0.27 -0.38,-0.72 -0.38,-1.36 0,-0.64 0.31,-1.33 0.93,-2.08 0.35,-0.41 0.85,-0.62 1.52,-0.62l3.87 0 1.66 -10.85 -3.29 0c-0.66,0 -1.12,-0.13 -1.38,-0.4 -0.25,-0.27 -0.38,-0.72 -0.38,-1.36 0,-0.64 0.31,-1.33 0.94,-2.07 0.34,-0.42 0.84,-0.63 1.51,-0.63l6.51 0z"/>
  <path id="10" class="fil4" d="M500.9 102.8c0.48,-0.5 0.92,-0.76 1.31,-0.76 0.37,0 0.68,0.17 0.93,0.5 0.25,0.32 0.37,0.71 0.37,1.16 0,0.27 -0.05,0.71 -0.14,1.31l-0.44 2.87c-0.17,1.07 -0.44,1.84 -0.81,2.28 -0.36,0.46 -0.79,0.68 -1.28,0.68 -0.45,0 -0.79,-0.18 -1.04,-0.53 -0.18,-0.26 -0.28,-0.8 -0.28,-1.6 0,-0.8 -0.19,-1.41 -0.58,-1.8 -0.75,-0.71 -1.79,-1.07 -3.13,-1.07 -2.07,0 -3.7,1.07 -4.91,3.21 -0.82,1.46 -1.24,3.02 -1.24,4.66 0,1.31 0.37,2.35 1.1,3.14 0.72,0.78 2.01,1.17 3.85,1.17 1.32,0 2.44,-0.18 3.35,-0.55 0.55,-0.23 1.09,-0.62 1.63,-1.16 0.54,-0.55 0.99,-0.83 1.36,-0.83 0.38,0 0.69,0.17 0.94,0.52 0.24,0.34 0.37,0.77 0.37,1.3 0,1.04 -0.52,2.01 -1.56,2.92 -1.72,1.51 -4.09,2.27 -7.08,2.27 -2.49,0 -4.32,-0.73 -5.5,-2.18 -1.18,-1.45 -1.77,-3.31 -1.77,-5.58 0,-2.14 0.45,-4.29 1.34,-6.46 0.9,-2.17 2.14,-3.86 3.72,-5.07 1.59,-1.21 3.29,-1.82 5.1,-1.82 0.88,0 1.69,0.11 2.42,0.35 0.74,0.24 1.39,0.6 1.97,1.07z"/>
  <path id="11" class="fil4" d="M518.04 107.22c-0.45,-0.46 -0.95,-0.81 -1.49,-1.04 -0.54,-0.23 -1.13,-0.34 -1.77,-0.34 -1.03,0 -1.91,0.19 -2.64,0.58 -0.72,0.39 -1.09,0.77 -1.09,1.17 0,0.26 0.12,0.5 0.36,0.74 0.33,0.32 1.1,0.6 2.3,0.83 1.87,0.36 3.24,0.74 4.1,1.14 0.87,0.39 1.56,1.02 2.07,1.89 0.51,0.87 0.77,1.84 0.77,2.9 0,2.14 -0.83,3.91 -2.49,5.31 -1.66,1.39 -3.59,2.09 -5.79,2.09 -0.93,0 -1.78,-0.11 -2.55,-0.33 -0.77,-0.22 -1.44,-0.54 -2.04,-0.97 -0.38,0.39 -0.75,0.58 -1.11,0.58 -0.41,0 -0.73,-0.16 -0.98,-0.49 -0.25,-0.32 -0.37,-0.72 -0.37,-1.16 0,-0.3 0.05,-0.74 0.14,-1.34l0.24 -1.51c0.16,-1.09 0.42,-1.86 0.8,-2.32 0.37,-0.45 0.8,-0.67 1.28,-0.67 0.39,0 0.69,0.14 0.9,0.45 0.21,0.3 0.33,0.82 0.38,1.55 0.39,0.58 0.92,1.01 1.57,1.31 0.65,0.29 1.43,0.43 2.33,0.43 1.59,0 2.84,-0.35 3.76,-1.06 0.41,-0.32 0.61,-0.68 0.61,-1.08 0,-0.57 -0.25,-1.02 -0.75,-1.35 -0.51,-0.32 -1.57,-0.61 -3.19,-0.86 -2.32,-0.37 -3.84,-0.97 -4.56,-1.81 -0.73,-0.84 -1.09,-1.93 -1.09,-3.25 0,-1.15 0.27,-2.24 0.8,-3.27 0.54,-1.03 1.34,-1.9 2.42,-2.61 1.39,-0.9 2.88,-1.35 4.48,-1.35 0.76,0 1.46,0.09 2.12,0.29 0.66,0.2 1.28,0.5 1.85,0.91 0.45,-0.39 0.82,-0.58 1.11,-0.58 0.34,0 0.62,0.16 0.87,0.48 0.24,0.33 0.36,0.71 0.36,1.14 0,0.31 -0.05,0.75 -0.13,1.34l-0.18 1.09c-0.16,1.06 -0.43,1.82 -0.81,2.27 -0.37,0.46 -0.8,0.69 -1.28,0.69 -0.39,0 -0.7,-0.17 -0.94,-0.49 -0.24,-0.33 -0.37,-0.76 -0.37,-1.3z"/>
 </g>
</svg>
